<?xml version="1.0" encoding="UTF-8"?>
<svg id="Logo_Dark" xmlns="http://www.w3.org/2000/svg" xmlns:xlink="http://www.w3.org/1999/xlink" viewBox="0 0 1050 1003">
  <defs>
    <linearGradient id="linear-gradient" x1="446.73" y1="200.31" x2="589.91" y2="166.23" gradientUnits="userSpaceOnUse">
      <stop offset="0" stop-color="#69773e"/>
      <stop offset=".17" stop-color="#6d793e"/>
      <stop offset=".36" stop-color="#7a8140"/>
      <stop offset=".55" stop-color="#8f8d43"/>
      <stop offset=".75" stop-color="#ae9f47"/>
      <stop offset=".95" stop-color="#d4b54d"/>
      <stop offset="1" stop-color="#e0bc4f"/>
    </linearGradient>
    <linearGradient id="linear-gradient-2" x1="468.67" y1="386.91" x2="555.09" y2="382.3" gradientUnits="userSpaceOnUse">
      <stop offset="0" stop-color="#64783e"/>
      <stop offset=".3" stop-color="#66793e"/>
      <stop offset=".47" stop-color="#6e7d3f"/>
      <stop offset=".61" stop-color="#7c8541"/>
      <stop offset=".73" stop-color="#909044"/>
      <stop offset=".84" stop-color="#aa9e47"/>
      <stop offset=".94" stop-color="#c9af4b"/>
      <stop offset="1" stop-color="#e0bc4f"/>
    </linearGradient>
    <linearGradient id="linear-gradient-3" x1="467.07" y1="457.36" x2="543.39" y2="449.57" gradientUnits="userSpaceOnUse">
      <stop offset="0" stop-color="#64783e"/>
      <stop offset=".2" stop-color="#67793e"/>
      <stop offset=".38" stop-color="#727f3f"/>
      <stop offset=".55" stop-color="#848942"/>
      <stop offset=".71" stop-color="#9d9745"/>
      <stop offset=".87" stop-color="#bda94a"/>
      <stop offset="1" stop-color="#e0bc4f"/>
    </linearGradient>
    <linearGradient id="linear-gradient-4" x1="480.2" y1="582.84" x2="552.72" y2="577.37" gradientUnits="userSpaceOnUse">
      <stop offset="0" stop-color="#64783e"/>
      <stop offset=".22" stop-color="#67793e"/>
      <stop offset=".4" stop-color="#707f3f"/>
      <stop offset=".56" stop-color="#818842"/>
      <stop offset=".71" stop-color="#989445"/>
      <stop offset=".85" stop-color="#b7a549"/>
      <stop offset=".99" stop-color="#dbb94e"/>
      <stop offset="1" stop-color="#e0bc4f"/>
    </linearGradient>
    <linearGradient id="linear-gradient-5" x1="455.19" y1="610.28" x2="563.08" y2="603.51" gradientUnits="userSpaceOnUse">
      <stop offset="0" stop-color="#64783e"/>
      <stop offset=".17" stop-color="#687a3e"/>
      <stop offset=".35" stop-color="#758140"/>
      <stop offset=".54" stop-color="#8b8d43"/>
      <stop offset=".74" stop-color="#a99e47"/>
      <stop offset=".93" stop-color="#d0b34c"/>
      <stop offset="1" stop-color="#e0bc4f"/>
    </linearGradient>
    <linearGradient id="linear-gradient-6" x1="459.22" y1="678.16" x2="576.27" y2="625.33" gradientUnits="userSpaceOnUse">
      <stop offset="0" stop-color="#64783e"/>
      <stop offset=".32" stop-color="#66793e"/>
      <stop offset=".49" stop-color="#6e7d3f"/>
      <stop offset=".63" stop-color="#7b8441"/>
      <stop offset=".74" stop-color="#8e8f43"/>
      <stop offset=".84" stop-color="#a79c47"/>
      <stop offset=".93" stop-color="#c5ad4b"/>
      <stop offset="1" stop-color="#e0bc4f"/>
    </linearGradient>
    <linearGradient id="linear-gradient-7" x1="275.27" y1="492.04" x2="419.97" y2="609.11" gradientUnits="userSpaceOnUse">
      <stop offset="0" stop-color="#e0bc4f"/>
      <stop offset=".03" stop-color="#d9b84e"/>
      <stop offset=".25" stop-color="#afa148"/>
      <stop offset=".45" stop-color="#8e8f43"/>
      <stop offset=".65" stop-color="#778240"/>
      <stop offset=".84" stop-color="#687a3e"/>
      <stop offset="1" stop-color="#64783e"/>
    </linearGradient>
    <linearGradient id="linear-gradient-8" x1="240.26" y1="594.26" x2="787.4" y2="594.26" gradientUnits="userSpaceOnUse">
      <stop offset="0" stop-color="#e0bc4f"/>
      <stop offset=".16" stop-color="#dbb94e"/>
      <stop offset=".35" stop-color="#ccb14c"/>
      <stop offset=".55" stop-color="#b5a449"/>
      <stop offset=".75" stop-color="#949244"/>
      <stop offset=".97" stop-color="#6a7b3e"/>
      <stop offset="1" stop-color="#64783e"/>
    </linearGradient>
    <linearGradient id="linear-gradient-9" x1="702.45" y1="433.93" x2="785.25" y2="441" gradientUnits="userSpaceOnUse">
      <stop offset="0" stop-color="#64783e"/>
      <stop offset=".15" stop-color="#6d7d3f"/>
      <stop offset=".39" stop-color="#878b42"/>
      <stop offset=".7" stop-color="#b1a248"/>
      <stop offset="1" stop-color="#e0bc4f"/>
    </linearGradient>
    <linearGradient id="linear-gradient-10" x1="602.49" y1="425.84" x2="722.51" y2="425.84" gradientUnits="userSpaceOnUse">
      <stop offset="0" stop-color="#e0bc4f"/>
      <stop offset=".4" stop-color="#b6b230"/>
      <stop offset=".79" stop-color="#94aa16"/>
      <stop offset="1" stop-color="#88a80d"/>
    </linearGradient>
  </defs>
  <circle cx="511.5" cy="502.5" r="454" style="stroke: #69773e; stroke-miterlimit: 10; stroke-width: .5px;"/>
  <g>
    <g>
      <path d="m625.11,639.27c6.89-.33,13.77-.66,20.66-.98.33,1.45.91,3.54,1.97,5.9,7.4,16.55,27.2,21.91,33.44,23.61,22.31,6.05,41.27-1.48,47.21-3.93,5.72-2.36,6.23-3.41,11.8-5.9,16.53-7.38,32.38-7.22,43.28-5.9-1.94-4.64-5.02-10.94-9.84-17.7-4.47-6.28-16.66-22.93-39.34-31.47-7.85-2.96-31.79-11.96-55.08,0-11.26,5.78-18.06,14.3-21.64,19.67,1.36,0,3.41-.01,5.9,0,16.39.1,25.58.15,35.41,1.97,4.82.89,11.64,2.54,19.67,5.9-28.85.66-57.7,1.31-86.55,1.97-2.29,2.3-4.59,4.59-6.89,6.89Z" style="fill: #64783e; stroke: #000; stroke-miterlimit: 10; stroke-width: .5px;"/>
      <path d="m682.16,259.61c.86-.24,1.5-1.58,1.97-9.84.59-10.41.89-15.62,0-19.67-2.32-10.6-9.31-17.85-13.77-21.64-1.23,2.01-3,5.38-3.93,9.84-2.17,10.41,1.88,19,5.9,27.54,1.19,2.52,6.88,14.6,9.84,13.77Z" style="fill: #e0bc4f; stroke: #000; stroke-miterlimit: 10; stroke-width: .5px;"/>
      <path d="m678.22,253.71c1.05-2.51-9.05-9.7-17.7-13.77-6.78-3.19-18.51-7.19-35.41-5.9,4.88,7.93,10.5,11.88,13.77,13.77,5.84,3.38,13.07,4.22,27.54,5.9,10.49,1.22,11.54.62,11.8,0Z" style="fill: #e0bc4f; stroke: #000; stroke-miterlimit: 10; stroke-width: .5px;"/>
      <path d="m713.63,320.59c.85-.1.4-3.23,1.97-7.87,2.19-6.47,6.28-9.9,7.87-11.8,3.49-4.18,5.2-13.3-3.93-35.41-1.64,1.28-3.8,3.2-5.9,5.9-4.05,5.21-5.5,10.25-5.9,11.8-.44,1.7-1.32,5.69,0,15.74,1.31,10.04,4.25,21.84,5.9,21.64Z" style="fill: #e0bc4f; stroke: #000; stroke-miterlimit: 10; stroke-width: .5px;"/>
      <path d="m705.76,312.73c.38-1.18-3.26-2.28-7.87-7.87-3.72-4.51-5.23-8.49-5.9-9.84-2.53-5.07-11.8-10.06-41.31-9.84.09,2,.48,4.87,1.97,7.87,3.09,6.23,9.02,9.16,15.74,11.8,16.7,6.56,36.51,10.58,37.38,7.87Z" style="fill: #e0bc4f; stroke: #000; stroke-miterlimit: 10; stroke-width: .5px;"/>
      <path d="m415.61,158.3c-5.06,9.18-12.11,24.81-13.77,45.24-.64,7.8-.3,14.07,0,17.7,2.76,33.67,21.3,57.19,27.54,64.92,5.61,6.95,14.48,16.48,27.54,25.57,12.46-7.87,24.92-15.74,37.38-23.61-8.17-2.92-21.99-9.04-35.41-21.64-13.2-12.39-20.14-25.53-23.61-33.44,32.79-1.97,65.57-3.93,98.36-5.9,17.39-1.04,30.61-2.76,37.38-3.93,3.63-.63,9.04-1.73,13.77-5.9.88-.78,1.54-1.49,1.97-1.97h-29.51c-41.97.66-83.93,1.31-125.9,1.97-2.68-5.6-5.9-13.62-7.87-23.61-4.1-20.76-.56-38.62-3.93-39.34-.74-.16-1.93.47-3.93,3.93Z" style="fill: #69773e; stroke: #000; stroke-miterlimit: 10; stroke-width: .5px;"/>
      <path d="m441.18,195.68c-.93,4.03,1.77,7.62,1.97,7.87,4.76,6.13,16.11,5.14,55.08-3.93,21.65-5.04,32.47-7.56,33.44-7.87,13.37-4.28,32.27-11.81,53.11-25.57-6.83,1.57-17.03,3.78-29.51,5.9-21.63,3.68-31.56,3.97-60.98,7.87-40.02,5.31-51.49,8.74-53.11,15.74Z" style="fill: url(#linear-gradient); stroke: #000; stroke-miterlimit: 10; stroke-width: .5px;"/>
      <path d="m456.92,250.76c7.89,4.42,29.16,14.92,57.05,11.8,18.29-2.04,31.85-9.09,39.34-13.77-32.13.66-64.26,1.31-96.39,1.97Z" style="fill: #e0bc4f; stroke: #000; stroke-miterlimit: 10; stroke-width: .5px;"/>
      <path d="m610.36,140.6v23.61c-1.41,8.98-4.14,21.43-9.84,35.41-3.19,7.82-14.26,33.2-43.28,60.98-5.98,5.72-10.68,9.6-15.01,12.69-8.74,6.26-13.99,8.87-24.34,15.1,0,0-7.74,4.65-23.6,15.49-21.26,14.52-56,38.24-66.88,78.69-7.4,27.52-.71,51.43,1.97,60.98,1.1,3.92,6.6,22.81,21.64,41.31,9.03,11.11,16.86,16.37,25.57,17.7,1.34.2,10.11,1.45,11.8-1.97,1.65-3.33-4.87-8.18-13.77-19.67-2.03-2.62-10.12-13.26-15.74-25.57-2.74-6-6.17-15.21-7.87-27.54,30.16-.66,60.33-1.31,90.49-1.97,10.99-.85,23.27-2.48,23.61-5.9.06-.63-.23-1.93-3.93-3.93-18.59-10.04-61.58-4.55-96.39-3.93-6.37.11-11.42.04-13.77,0,1.02-6.39,3.12-15.5,7.87-25.57,5.04-10.71,10.8-17.69,15.74-23.61,3.15-3.77,12.06-14.07,27.54-25.57,13.69-10.17,16.23-9.02,35.41-21.64,7.39-4.86,18.69-12.36,31.47-23.61,11.26-9.91,20.94-18.43,29.51-31.47,12.75-19.41,15.92-38.07,17.7-49.18,4.89-30.45-1.02-55.9-5.9-70.82" style="fill: #e0bc4f; stroke: #000; stroke-miterlimit: 10; stroke-width: .5px;"/>
      <path d="m468.72,390.43c1.74-1.63,4.35-3.84,7.87-5.9,3.76-2.2,10.36-5.3,33.44-5.9,24.5-.64,32.17,2.45,35.41,3.93,4.34,1.99,7.65,4.24,9.84,5.9-28.85.66-57.7,1.31-86.55,1.97Z" style="fill: url(#linear-gradient-2); stroke: #000; stroke-miterlimit: 10; stroke-width: .5px;"/>
      <path d="m466.76,449.44c4.77,3.07,26.74,16.5,53.11,9.84,10.68-2.7,18.59-7.81,23.61-11.8-25.57.66-51.15,1.31-76.72,1.97Z" style="fill: url(#linear-gradient-3); stroke: #000; stroke-miterlimit: 10; stroke-width: .5px;"/>
      <path d="m535.61,551.73c3.75,2.79,8.58,6.68,13.77,11.8,3.39,3.34,10.89,11.09,17.7,21.64,10.97,16.96,15.6,34.07,17.7,45.24,2.78-1.13,7.06-3.4,9.84-7.87,3.38-5.44,3.06-11.75.98-20.66-4.36-18.75-12.79-33.24-18.69-42.29-4.25-6.52-10.67-15.56-19.67-25.57-7.21,5.9-14.43,11.8-21.64,17.7Z" style="fill: #69773e; stroke: #000; stroke-miterlimit: 10; stroke-width: .5px;"/>
      <path d="m559.21,583.21c-5.16-3.16-17.89-9.98-35.41-9.84-19.03.15-32.46,8.42-37.38,11.8,24.26-.66,48.52-1.31,72.78-1.97Z" style="fill: url(#linear-gradient-4); stroke: #000; stroke-miterlimit: 10; stroke-width: .5px;"/>
      <path d="m454.95,608.78c5.19,1.2,12.63,2.73,21.64,3.93,43.49,5.83,86.48-.84,86.55-5.9.03-2.33-9.01-4.15-17.7-5.9-16.47-3.32-48.19-6.72-90.49,7.87Z" style="fill: url(#linear-gradient-5); stroke: #000; stroke-miterlimit: 10; stroke-width: .5px;"/>
      <path d="m572.98,626.49c-4.53-6.02-33.61,12.67-76.72,27.54-20.71,7.14-38.52,11.29-51.15,13.77,29.64,2.05,53.85-.78,70.82-3.93,34.06-6.33,46.33-15.33,53.11-25.57,1.8-2.71,6-9.06,3.93-11.8Z" style="fill: url(#linear-gradient-6); stroke: #000; stroke-miterlimit: 10; stroke-width: .5px;"/>
      <path d="m431.35,347.15c-6.22,10.57-17.38,32.9-17.7,62.95-.47,43.77,22.38,73.91,29.51,82.62-5.74-2.05-11.64-4.02-17.7-5.9-31.45-9.74-61.32-15.09-88.52-17.7,1.2-13.66,5.15-36.84,19.67-60.98,24.37-40.51,62.02-56.29,74.75-60.98Z" style="fill: #e0bc4f; stroke: #000; stroke-miterlimit: 10; stroke-width: .5px;"/>
      <path d="m433.31,534.03c-3.95,7.04-7.96,14.92-11.8,23.61-4,9.05-7.22,17.64-9.84,25.57-3.11-3.31-6.39-6.6-9.84-9.84-35.98-33.79-78.01-50.55-114.09-59.01,5.9,2.62,11.8,5.25,17.7,7.87,16.29,7.33,36.18,17.97,57.05,33.44,20.12,14.91,35.66,30.23,47.21,43.28-9.55.18-19.39.19-29.51,0-15.04-.28-29.48-.97-43.28-1.97,3.93,1.31,7.87,2.62,11.8,3.93,20.98,5.9,41.97,11.8,62.95,17.7,2.62,9.84,5.25,19.67,7.87,29.51-18.68-.53-47.07-4.1-76.72-19.67-72.76-38.22-91.43-116.34-94.42-129.83,29-5.43,82.06-10.76,139.67,11.8,17.72,6.94,32.78,15.31,45.24,23.61Z" style="fill: url(#linear-gradient-7); stroke: #000; stroke-miterlimit: 10; stroke-width: .5px;"/>
      <path d="m325.12,443.54c.77,1.63,1.8,4.36,1.97,7.87.22,4.57-1.14,8.08-1.97,9.84-15,.48-32.22.1-51.15-1.97-16.8-1.84-31.97-4.68-45.24-7.87,5.63-.39,14.57-1.03,25.57-1.97,18.35-1.56,26.25-2.71,43.28-3.93,11.63-.84,21.17-1.52,27.54-1.97Z" style="fill: #e0bc4f; stroke: #000; stroke-miterlimit: 10; stroke-width: .5px;"/>
      <path d="m331.02,414.03c-1.31,3.93-2.62,7.87-3.93,11.8-8.44-2.52-17.32-5.44-26.56-8.85-9.47-3.5-18.33-7.15-26.56-10.82,7.82-.51,17.53-.5,28.52.98,11.35,1.53,20.97,4.22,28.52,6.89Z" style="fill: #e0bc4f; stroke: #000; stroke-miterlimit: 10; stroke-width: .5px;"/>
      <path d="m350.69,384.53c-1.97,3.28-3.93,6.56-5.9,9.84-11.78-6.05-24.35-13.2-37.38-21.64-18.26-11.83-33.95-23.97-47.21-35.41,16.9,6.5,35.52,14.83,55.08,25.57,12.98,7.13,24.78,14.45,35.41,21.64Z" style="fill: #e0bc4f; stroke: #000; stroke-miterlimit: 10; stroke-width: .5px;"/>
      <path d="m378.23,362.89c-3.28,2.62-6.56,5.25-9.84,7.87-6.13-6.4-12.38-13.28-18.69-20.66-8.35-9.76-15.86-19.33-22.62-28.52,8.89,5.65,18.55,12.47,28.52,20.66,8.57,7.04,16.09,14.03,22.62,20.66Z" style="fill: #e0bc4f; stroke: #000; stroke-miterlimit: 10; stroke-width: .5px;"/>
      <path d="m405.77,345.18c-3.93,2.62-7.87,5.25-11.8,7.87-6.61-10.47-13.3-22.27-19.67-35.41-11.08-22.86-18.52-44.32-23.61-62.95,13.01,16.39,26.62,36,39.34,59.01,6,10.85,11.2,21.39,15.74,31.47Z" style="fill: #e0bc4f; stroke: #000; stroke-miterlimit: 10; stroke-width: .5px;"/>
      <path d="m425.45,339.28c-2.99-5.67-5.99-11.9-8.85-18.69-3.68-8.72-6.57-16.98-8.85-24.59,5.4,5.9,11.09,12.76,16.72,20.66,4.13,5.79,7.71,11.41,10.82,16.72-3.28,1.97-6.56,3.93-9.84,5.9Z" style="fill: #e0bc4f; stroke: #000; stroke-miterlimit: 10; stroke-width: .5px;"/>
      <path d="m750.02,490.75c-11.45,3.08-33.41,8.98-49.18,27.54-3.4,4.01-8.17,12.51-17.7,29.51-7.65,13.65-12.86,23.83-13.77,25.57-10.62,20.46-35.34,48.83-64.92,68.85-45.09,30.52-89.05,35.2-112.13,37.38-21.83,2.06-69.84,6-123.93-17.7-8.15-3.57-78.56-35.55-114.09-106.23-7.47-14.86-12.64-29.91-13.77-29.51-1.84.66,5.16,42.8,29.51,80.65,26.52,41.24,62.88,60.66,78.69,68.85,72.02,37.32,157.75,31.2,214.42,3.93,13.91-6.69,65.3-35.96,86.55-59.01,2.4-2.6,11.04-12.32,25.57-19.67,9.43-4.77,18.02-6.86,23.61-7.87,0,0,19.78-4.35,37.38-15.74,25.08-16.23,35.51-41.41,41.31-55.08,5.61-13.23,8.41-25.48,9.84-35.41-15.91-.79-28.74,1.61-37.38,3.93Zm-35.41,66.88c-2.03,1.87-10.7,9.75-23.61,17.7-5.34,3.29-11.04,6.81-11.8,5.9-.86-1.03,4.44-7.87,31.47-33.44,13.77-11.15,27.54-22.29,41.31-33.44-5.11,7.15-19.75,27.09-37.38,43.28Z" style="fill: url(#linear-gradient-8); stroke: #000; stroke-miterlimit: 10; stroke-width: .5px;"/>
      <path d="m787.4,384.53c-5.11,1.99-12.04,5.09-19.67,9.84-20.36,12.66-31.53,28.22-39.34,39.34-.97,1.37-13.47,19.46-21.64,45.24-2.82,8.89-2.79,11.37-1.97,11.8.44.23,2.52.62,17.7-21.64,5.46-8,8.55-13.1,11.24-17.33,11.58-18.26,22.95-31.61,39.91-51.52,4.08-4.79,8.68-10.07,13.77-15.74Z" style="fill: url(#linear-gradient-9); stroke: #000; stroke-miterlimit: 10; stroke-width: .5px;"/>
      <path d="m626.09,402.23c.43,2.24,1.09,5.67,1.97,9.84,6.63,31.53,11.47,39.4,13.77,57.05,1.95,14.94.74,26.63,0,33.44-.56,5.11-2.76,23.32-11.8,45.24-7.02,17.02-12.41,22.7-17.7,41.31-2.1,7.39-3.27,13.61-3.93,17.7,3.48-1.28,8.62-3.6,13.77-7.87,5.12-4.25,7.49-8.13,11.8-13.77,6.72-8.78,10.97-12.41,15.74-17.7,12.97-14.39,22.86-31.97,31.47-47.21,7.61-13.47,15.83-28.18,23.61-49.18,2.92-7.88,7.87-22.42,11.8-41.31,2.47-11.89,5.57-27.12,5.9-47.21.65-38.88-9.52-66.76-11.8-72.78-3.75-9.91-7.57-17.3-9.84-21.64-9.98-19.14-21.02-33.52-29.51-43.28,2.02,3.4,4.76,8.1,7.87,13.77,3.84,6.99,9.8,17.89,15.74,31.47,1.68,3.84,6.37,14.56,9.84,25.57,7.3,23.16,7.68,42.88,7.87,55.08.65,42.58-10.74,76.38-19.67,102.29-3.79,11-7.39,19.84-9.84,25.57,3.19-21.38,2.99-39.59,1.97-53.11-1.32-17.33-4.27-30.77-5.9-37.38-1.43-5.78-3.69-14.68-7.87-25.57-12.57-32.79-29.47-50.96-33.44-55.08-7.06-7.33-14.07-12.85-23.61-15.74-4.8-1.45-8.98-1.86-11.8-1.97,2.91,2.74,7.05,6.76,11.8,11.8,9.94,10.55,27.36,28.54,39.34,53.11,18.29,37.5,18,71.53,17.7,86.55-.24,12.31-.7,28.88-7.87,49.18-6.28,17.8-15.07,30.96-21.64,39.34,2.32-5.15,5.3-12.52,7.87-21.64,4.02-14.25,4.96-25.38,5.9-37.38,1.16-14.66,1.91-24.27,0-37.38-1.32-9.06-2.59-17.7-7.87-27.54-6.64-12.38-15.95-19.79-21.64-23.61Z" style="fill: url(#linear-gradient-10); stroke: #000; stroke-miterlimit: 10; stroke-width: .5px;"/>
      <path d="m751.99,351.08c-3.8.32-10.12,1.45-15.74,5.9-9.53,7.56-10.79,19.77-11.8,29.51-.59,5.68-.82,14.67,1.97,25.57,1.67-2.13,3.69-4.77,5.9-7.87,1.86-2.6,4.69-6.68,7.87-11.8,2.79-4.5,5.94-9.58,7.87-13.77,2.28-4.96,5.25-13.92,3.93-27.54Z" style="fill: #e0bc4f; stroke: #000; stroke-miterlimit: 10; stroke-width: .5px;"/>
      <path d="m707.73,397.31c.22-2.39.38-5.79,0-9.84-.29-3.12-1.18-12.52-5.9-19.67-8.17-12.36-24.93-13.61-27.54-13.77-.37,2.9-.31,5.53,0,7.87,2.87,21.98,29.19,33.6,33.44,35.41Z" style="fill: #e0bc4f; stroke: #000; stroke-miterlimit: 10; stroke-width: .5px;"/>
      <path d="m727.4,357.97c.89-.14.2-3.26,1.97-7.87,2.54-6.62,7.52-9.42,9.84-11.8,3.89-4.01,6.2-13.02-1.97-35.41-2.1,2.73-4.94,6.72-7.87,11.8-4.17,7.26-6.79,11.8-7.87,17.7-2.4,13.12,4.06,25.85,5.9,25.57Z" style="fill: #e0bc4f; stroke: #000; stroke-miterlimit: 10; stroke-width: .5px;"/>
      <path d="m701.83,277.32c3.19-.4,4.92-6.41,5.9-9.84.37-1.3,2.11-7.7,0-15.74-2.55-9.71-9.05-15.52-11.8-17.7-.39,1.79-1.02,4.55-1.97,7.87-2.06,7.25-3.31,9.13-3.93,11.8-2.46,10.49,6.69,24.25,11.8,23.61Z" style="fill: #e0bc4f; stroke: #000; stroke-miterlimit: 10; stroke-width: .5px;"/>
      <path d="m707.73,354.04c3.23-2.92.36-10.8,0-11.8-4.71-12.96-21.83-20.98-43.28-21.64,1.08,3.09,2.87,7.32,5.9,11.8,11.04,16.35,32,26.5,37.38,21.64Z" style="fill: #e0bc4f; stroke: #000; stroke-miterlimit: 10; stroke-width: .5px;"/>
      <path d="m682.16,277.32c1.57-3.25-4.99-9.46-7.87-11.8-12.55-10.19-29.39-6.82-33.44-5.9,1.77,3.33,4.8,7.91,9.84,11.8,11.81,9.13,29.32,10.37,31.47,5.9Z" style="fill: #e0bc4f; stroke: #000; stroke-miterlimit: 10; stroke-width: .5px;"/>
      <path d="m656.59,228.14c1.86-1.46.55-5.96,0-7.87-4.34-15-24.05-20.68-27.54-21.64.48,3.04,1.5,7.29,3.93,11.8,6.54,12.13,20.16,20.42,23.61,17.7Z" style="fill: #e0bc4f; stroke: #000; stroke-miterlimit: 10; stroke-width: .5px;"/>
      <path d="m592.65,364.85c-14.52-23.37-33.52-35.82-43.28-41.31-14.43,11.15-28.85,22.29-43.28,33.44,6.37-.08,18.76.65,31.47,7.87,19.59,11.11,32.4,33.31,31.47,55.08-.8,18.64-11.42,31.2-21.64,43.28-16.3,19.26-26.6,19.31-64.92,47.21-20.29,14.77-30.44,22.16-38.36,32.46-6.18,8.03-24.61,32.01-22.62,65.9,1.48,25.1,13.42,43.07,19.67,51.15.21-5.24.7-12.73,1.97-21.64,2.2-15.42,4.04-28.35,9.84-39.34,3.88-7.36,8.87-12.6,41.31-33.44,26.44-16.99,27.6-16.38,41.31-25.57,25.29-16.96,40.23-26.98,53.11-45.24,4.77-6.76,19.26-27.87,21.64-59.01,2.61-34.16-10.91-59.88-17.7-70.82Zm-18.69,117.05c-12.98,19.52-30.77,31.16-43.28,39.34-18.5,12.1-30.34,15.18-49.18,31.47-8.08,6.99-14.03,13.45-17.7,17.7-6.56,6.56-13.11,13.11-19.67,19.67,5.54-10.59,14.79-25.88,29.51-41.31,13.99-14.66,20.05-15.96,51.15-39.34,44.02-33.1,53.41-46.72,59.01-59.01,4.98-10.94,6.97-20.86,7.87-27.54-1,30.39-11.48,49.65-17.7,59.01Z" style="fill: #64783e; stroke: #000; stroke-miterlimit: 10; stroke-width: .5px;"/>
    </g>
    <g>
      <path d="m354.38,708.98c-1.85,5.24-3.7,10.49-5.55,15.73-.29-.57-.74-1.39-1.39-2.31-5.51-7.82-16.7-10.61-25.45-9.72-10.44,1.06-19.06,7.52-23.6,15.27-3.96,6.76-4.07,13.22-4.16,18.97-.11,6.51-.25,14.81,5.09,22.67,7.3,10.75,19.6,12.97,22.67,13.42,17.15,2.5,29.45-9.13,31-10.64,1.39,1.39,2.78,2.78,4.16,4.16-1.02,1.47-2.53,3.46-4.63,5.55-6.5,6.51-13.53,9.08-16.66,10.18-19.17,6.76-37.45-1.85-38.4-2.31-4.05-1.98-13.94-6.99-20.36-18.51-8.18-14.67-4.8-29.29-3.7-33.31,3.28-12.04,10.69-19.2,13.88-22.21,2.31-2.18,10.13-9.15,22.67-12.49,11.79-3.15,21.48-1.27,27.76,0,7.09,1.43,12.75,3.7,16.66,5.55Z" style="fill: #64783e; stroke: #000; stroke-miterlimit: 10; stroke-width: .5px;"/>
      <path d="m355.3,734.89c2.78,2.16,5.55,4.32,8.33,6.48v40.72c-.93,3.08-1.85,6.17-2.78,9.25h24.06v-.93c-1.23-1.85-2.47-3.7-3.7-5.55v-28.69c.79-1.81,2-4.4,3.7-7.4,1.76-3.1,2.64-4.64,3.7-5.55,4.44-3.79,13.31-.14,15.73.93v-13.88c-1.19-.67-3.46-1.74-6.48-1.85,0,0-2.68-.1-5.55.93-7.23,2.58-11.56,11.91-12.03,12.95h-.93v-12.95h-1.85c-7.4,1.85-14.81,3.7-22.21,5.55Z" style="fill: #64783e; stroke: #000; stroke-miterlimit: 10; stroke-width: .5px;"/>
      <path d="m470.05,740.7c-6.47-8.18-15.37-10.35-19.43-11.34-1.97-.48-9.31-2.11-18.51,0-4.48,1.03-12.82,2.94-19.43,10.4-10.29,11.62-7.81,27.02-7.4,29.3.57,3.23,1.87,10,7.4,16.07,8.02,8.79,18.82,9.38,21.28,9.45h15.73c3.18-.61,11.7-2.69,18.51-10.4,1.14-1.29,4.43-5.23,6.48-11.34.47-1.4,5.96-18.75-4.63-32.14Zm-12.03,25.65c-.63,4.43-1.98,13.9-9.25,17.58-4.75,2.41-9.83,1.22-11.1.93-1.16-.27-4.4-1.07-7.4-3.7-1.15-1.01-3.71-3.57-5.55-10.18-1.02-3.66-4.87-17.48,2.78-27.76,1.09-1.47,3.01-3.98,6.48-5.55,4.18-1.89,9.1-1.73,12.95,0,8.85,3.97,10.53,15.5,11.1,19.43.23,1.6.61,5,0,9.25Z" style="fill: #64783e; stroke: #000; stroke-miterlimit: 10; stroke-width: .5px;"/>
      <path d="m551.48,751.55c-.68-2.56-3.56-13.49-13.88-19.43-6.03-3.47-11.88-3.66-13.88-3.7-2.66-.05-8.65-.07-14.81,3.7-4.5,2.76-7.07,6.31-8.33,8.33v-12.03c-8.33,2.16-16.66,4.32-24.98,6.48.94.27,2.9.96,4.63,2.78,2.17,2.29,2.6,5.13,2.78,6.48,1.66,12.53.98,48.66.93,51.82-.07,4.17-.04,7.66,0,10.18,7.09.31,14.19.62,21.28.93-.93-1.85-1.85-3.7-2.78-5.55v-14.81c1.52,1.63,4.25,4.1,8.32,5.55.75.27,1.94.64,3.71.93,11.26,1.84,20.36-2.78,20.36-2.78,1.41-.72,6.05-3.22,10.18-8.33,6.51-8.06,9.36-19.63,6.48-30.54Zm-20.36,24.06c-.66,1.27-4.62,8.86-12.03,9.25-6.73.36-11.22-5.43-12.03-6.48-3.5-4.51-3.63-9.41-3.7-14.81-.1-7.48-.24-18.49,7.4-23.13,3.65-2.22,8.83-2.83,12.95-.93,8.15,3.75,8.82,15.62,9.25,23.13.26,4.55.44,8.57-1.85,12.95Z" style="fill: #64783e; stroke: #000; stroke-miterlimit: 10; stroke-width: .5px;"/>
      <path d="m628.28,748.77c-7.68-6.21-16.44-5.72-18.51-5.55,1.32-.27,3.31-.79,5.55-1.85,2.27-1.07,10.8-5.53,12.95-14.81.35-1.5,1.03-4.6,0-8.33-1.53-5.53-5.97-8.56-8.33-10.18-8.02-5.52-25.26-7.24-46.27-3.7-6.79,1.23-13.57,2.47-20.36,3.7,2.16,2.16,4.32,4.32,6.48,6.48v70.33c-.93,2.16-1.85,4.32-2.78,6.48,8.93.34,26.59.92,45.34.93,2.12,0,6.99-.09,12.95-1.85,4.74-1.4,13.35-3.95,18.51-12.03,1.06-1.66,3.75-6,3.7-12.03-.08-10.17-7.91-16.49-9.25-17.58Zm-49.97-36.09c4.72-.24,13.2-.55,20.36,0,.8.06,2.16.18,3.7.93,5.14,2.5,6.31,9.12,6.48,10.18.14.86,1.2,8.28-3.7,12.95-2.59,2.47-5.54,2.93-11.1,3.7-3.64.51-9.06.9-15.73,0v-27.76Zm37.01,57.37c-.09.36-2.27,8.33-9.25,11.1-2.23.89-4.13.92-5.55.93-6.98.04-14.01.05-21.28,0-.31-11.1-.62-22.21-.93-33.31h17.58c7.26-.62,14.11,2.58,17.58,8.33,3.56,5.91,2.08,12.06,1.85,12.95Z" style="fill: #dfbe4e; stroke: #000; stroke-miterlimit: 10; stroke-width: .5px;"/>
      <path d="m636.15,734.43c2.47,2.16,4.94,4.32,7.4,6.48.31,13.88.62,27.76.93,41.64-.93,3.08-1.85,6.17-2.78,9.25h24.98c-.93-2.47-1.85-4.94-2.78-7.4.31-18.51.62-37.01.93-55.52h-6.48c-7.4,1.85-14.81,3.7-22.21,5.55Z" style="fill: #dfbe4e; stroke: #000; stroke-miterlimit: 10; stroke-width: .5px;"/>
      <path d="m737.01,737.21c-8.96-8.55-19.91-9.03-24.98-9.25-7.69-.34-13.88,1.41-17.58,2.78-3.45,1.5-11.71,5.65-16.66,14.81-7.13,13.19-4.37,31.19,6.48,40.72,7.06,6.2,15.45,6.96,20.36,7.4,15.44,1.4,27.17-5.5,31.46-8.33,1.77-1.56,10.19-9.31,11.1-22.21.07-1,.85-15.38-10.18-25.91Zm-8.33,28.69c-.43,5.38-.98,12.22-6.48,16.66-5.67,4.58-13.86,4.39-19.43,1.85-11.52-5.24-14.85-21.88-11.1-33.31.77-2.35,3.98-12.12,12.95-14.81,6.93-2.07,13.03,1.36,13.88,1.85,11.85,6.91,10.39,25.07,10.18,27.76Z" style="fill: #dfbe4e; stroke: #000; stroke-miterlimit: 10; stroke-width: .5px;"/>
      <path d="m640.31,707.13c-.23,1.08-1.53,7.75,2.78,12.95.81.98,4.39,5.3,9.25,4.63,3.85-.53,5.97-3.84,6.48-4.63.26-.4,3.22-5.19.93-10.18-1.7-3.7-5.16-5.04-6.48-5.55-.9-.35-4.99-1.94-9.25,0-1.81.83-3.02,2-3.7,2.78Z" style="fill: #64783e; stroke: #000; stroke-miterlimit: 10; stroke-width: .5px;"/>
      <path d="m661.59,724.71c4.45-.81,6.89-.96,8.33-.93.43.01,1.83.06,3.6-.34.7-.16,1.31-.36,1.95-.59,5.59-2.03,8.53-7.09,9.25-8.33.03-.04.63-1.26,1.85-3.7,1.84-3.68,2.04-4.1,1.85-4.63-.78-2.21-6.81-1.92-8.33-1.85-1.24.06-5.03.24-8.33,1.85-5.93,2.89-9.78,10.15-10.18,18.51Z" style="fill: #64783e; stroke: #000; stroke-miterlimit: 10; stroke-width: .5px;"/>
      <circle cx="397.87" cy="827.43" r="3.7" style="fill: #64783e; stroke: #000; stroke-miterlimit: 10; stroke-width: .5px;"/>
      <circle cx="509.84" cy="827.43" r="3.7" style="fill: #64783e; stroke: #000; stroke-miterlimit: 10; stroke-width: .5px;"/>
      <text transform="translate(302.1 834.89) scale(1.16 1)" style="fill: #fff; font-family: MyriadPro-Regular, &apos;Myriad Pro&apos;; font-size: 23.84px; stroke: #fff; stroke-miterlimit: 10;"><tspan x="0" y="0">M</tspan></text>
      <text transform="translate(325.43 834.78) scale(1.16 1)" style="fill: #fff; font-family: MyriadPro-Regular, &apos;Myriad Pro&apos;; font-size: 23.71px; stroke: #fff; stroke-miterlimit: 10;"><tspan x="0" y="0">M</tspan></text>
      <text transform="translate(349.29 834.07) scale(1.3 1)" style="fill: #fff; font-family: MyriadPro-Regular, &apos;Myriad Pro&apos;; font-size: 22.86px; stroke: #fff; stroke-miterlimit: 10;"><tspan x="0" y="0">S</tspan></text>
      <text transform="translate(364.09 834.54) scale(1.25 1)" style="fill: #fff; font-family: MyriadPro-Regular, &apos;Myriad Pro&apos;; font-size: 22.86px; stroke: #fff; stroke-miterlimit: 10;"><tspan x="0" y="0">U</tspan></text>
      <text transform="translate(411.46 834.45) scale(1.3 1)" style="fill: #fff; font-family: MyriadPro-Regular, &apos;Myriad Pro&apos;; font-size: 22.86px; stroke: #fff; stroke-miterlimit: 10;"><tspan x="0" y="0">B</tspan></text>
      <text transform="translate(427.94 834.3) scale(1.3 1)" style="fill: #fff; font-family: MyriadPro-Regular, &apos;Myriad Pro&apos;; font-size: 22.86px; stroke: #fff; stroke-miterlimit: 10;"><tspan x="0" y="0">A</tspan></text>
      <text transform="translate(447.38 834.3) scale(1.3 1)" style="fill: #fff; font-family: MyriadPro-Regular, &apos;Myriad Pro&apos;; font-size: 22.86px; stroke: #fff; stroke-miterlimit: 10;"><tspan x="0" y="0">T</tspan></text>
      <text transform="translate(460.33 834.3) scale(1.3 1)" style="fill: #fff; font-family: MyriadPro-Regular, &apos;Myriad Pro&apos;; font-size: 22.86px; stroke: #fff; stroke-miterlimit: 10;"><tspan x="0" y="0">A</tspan></text>
      <text transform="translate(479.54 834.32) scale(1.12 1)" style="fill: #fff; font-family: MyriadPro-Regular, &apos;Myriad Pro&apos;; font-size: 23.16px; stroke: #fff; stroke-miterlimit: 10;"><tspan x="0" y="0">C</tspan></text>
      <text transform="translate(525.47 834.9) scale(1.3 1)" style="fill: #fff; font-family: MyriadPro-Regular, &apos;Myriad Pro&apos;; font-size: 22.86px; stroke: #fff; stroke-miterlimit: 10;"><tspan x="0" y="0">I</tspan></text>
      <text transform="translate(510.74 852.93) scale(1.3 1)" style="fill: none; font-family: MyriadPro-Regular, &apos;Myriad Pro&apos;; font-size: 22.86px; stroke: #000; stroke-miterlimit: 10;"><tspan x="0" y="0" xml:space="preserve">      </tspan></text>
      <text transform="translate(532.97 834.53) scale(1.3 1)" style="fill: #fff; font-family: MyriadPro-Regular, &apos;Myriad Pro&apos;; font-size: 22.86px; stroke: #fff; stroke-miterlimit: 10;"><tspan x="0" y="0">L</tspan></text>
      <text transform="translate(547.31 834.56) scale(1.09 1)" style="fill: #fff; font-family: MyriadPro-Regular, &apos;Myriad Pro&apos;; font-size: 24.55px; stroke: #fff; stroke-miterlimit: 10;"><tspan x="0" y="0">O</tspan></text>
      <text transform="translate(566.4 834.38) scale(1.12 1)" style="fill: #fff; font-family: MyriadPro-Regular, &apos;Myriad Pro&apos;; font-size: 23.16px; stroke: #fff; stroke-miterlimit: 10;"><tspan x="0" y="0">C</tspan></text>
      <text transform="translate(583.87 834.79) scale(1.09 1)" style="fill: #fff; font-family: MyriadPro-Regular, &apos;Myriad Pro&apos;; font-size: 24.55px; stroke: #fff; stroke-miterlimit: 10;"><tspan x="0" y="0">O</tspan></text>
      <text transform="translate(604.07 834.41) scale(1.3 1)" style="fill: #fff; font-family: MyriadPro-Regular, &apos;Myriad Pro&apos;; font-size: 22.86px; stroke: #fff; stroke-miterlimit: 10;"><tspan x="0" y="0">S</tspan></text>
      <text transform="translate(627.6 834.77) scale(1.3 1)" style="fill: #fff; font-family: MyriadPro-Regular, &apos;Myriad Pro&apos;; font-size: 22.86px; stroke: #fff; stroke-miterlimit: 10;"><tspan x="0" y="0">N</tspan></text>
      <text transform="translate(647.67 834.35) scale(1.09 1)" style="fill: #fff; font-family: MyriadPro-Regular, &apos;Myriad Pro&apos;; font-size: 24.55px; stroke: #fff; stroke-miterlimit: 10;"><tspan x="0" y="0">O</tspan></text>
      <text transform="translate(668.03 835.27) scale(1.09 1)" style="fill: #fff; font-family: MyriadPro-Regular, &apos;Myriad Pro&apos;; font-size: 24.55px; stroke: #fff; stroke-miterlimit: 10;"><tspan x="0" y="0">R</tspan></text>
      <text transform="translate(685.5 835.33) scale(1.09 1)" style="fill: #fff; font-family: MyriadPro-Regular, &apos;Myriad Pro&apos;; font-size: 24.55px; stroke: #fff; stroke-miterlimit: 10;"><tspan x="0" y="0">T</tspan></text>
      <text transform="translate(700.35 835.25) scale(1.09 1)" style="fill: #fff; font-family: MyriadPro-Regular, &apos;Myriad Pro&apos;; font-size: 24.55px; stroke: #fff; stroke-miterlimit: 10;"><tspan x="0" y="0">E</tspan></text>
      <text transform="translate(273.66 833.01) scale(2.91 1)" style="fill: #fff; font-family: MyriadPro-Regular, &apos;Myriad Pro&apos;; font-size: 24.55px; stroke: #fff; stroke-miterlimit: 10;"><tspan x="0" y="0">-</tspan></text>
      <text transform="translate(723.04 833.32) scale(2.91 1)" style="fill: #fff; font-family: MyriadPro-Regular, &apos;Myriad Pro&apos;; font-size: 24.55px; stroke: #fff; stroke-miterlimit: 10;"><tspan x="0" y="0">-</tspan></text>
    </g>
    <path d="m507.63,74.87c-236.59,0-428.39,191.8-428.39,428.39s191.8,428.39,428.39,428.39,428.39-191.8,428.39-428.39S744.22,74.87,507.63,74.87Zm-1.54,827.55c-219.6,0-397.63-178.02-397.63-397.63S286.49,107.18,506.09,107.18s397.63,178.02,397.63,397.63-178.02,397.63-397.63,397.63Z" style="fill: #69773e; stroke: #000; stroke-miterlimit: 10; stroke-width: .5px;"/>
    <path d="m510.43,27.22C248.13,27.22,35.5,239.85,35.5,502.14s212.63,474.93,474.93,474.93,474.93-212.63,474.93-474.93S772.72,27.22,510.43,27.22Zm-1.71,917.45c-243.46,0-440.82-197.36-440.82-440.82S265.26,63.03,508.72,63.03s440.82,197.36,440.82,440.82-197.36,440.82-440.82,440.82Z" style="fill: #e0bc4f; stroke: #000; stroke-miterlimit: 10; stroke-width: .5px;"/>
  </g>
</svg>