<?xml version="1.0" encoding="UTF-8"?>
<svg xmlns="http://www.w3.org/2000/svg" xmlns:xlink="http://www.w3.org/1999/xlink" viewBox="0 0 1240 501">
  <defs>
    <linearGradient id="linear-gradient" x1="200.49" y1="116.61" x2="274.38" y2="99.02" gradientUnits="userSpaceOnUse">
      <stop offset="0" stop-color="#69773e"/>
      <stop offset=".17" stop-color="#6d793e"/>
      <stop offset=".36" stop-color="#7a8140"/>
      <stop offset=".55" stop-color="#8f8d43"/>
      <stop offset=".75" stop-color="#ae9f47"/>
      <stop offset=".95" stop-color="#d4b54d"/>
      <stop offset="1" stop-color="#e0bc4f"/>
    </linearGradient>
    <linearGradient id="linear-gradient-2" x1="211.82" y1="212.89" x2="256.41" y2="210.52" gradientUnits="userSpaceOnUse">
      <stop offset="0" stop-color="#64783e"/>
      <stop offset=".3" stop-color="#66793e"/>
      <stop offset=".47" stop-color="#6e7d3f"/>
      <stop offset=".61" stop-color="#7c8541"/>
      <stop offset=".73" stop-color="#909044"/>
      <stop offset=".84" stop-color="#aa9e47"/>
      <stop offset=".94" stop-color="#c9af4b"/>
      <stop offset="1" stop-color="#e0bc4f"/>
    </linearGradient>
    <linearGradient id="linear-gradient-3" x1="210.99" y1="249.25" x2="250.37" y2="245.23" gradientUnits="userSpaceOnUse">
      <stop offset="0" stop-color="#64783e"/>
      <stop offset=".2" stop-color="#67793e"/>
      <stop offset=".38" stop-color="#727f3f"/>
      <stop offset=".55" stop-color="#848942"/>
      <stop offset=".71" stop-color="#9d9745"/>
      <stop offset=".87" stop-color="#bda94a"/>
      <stop offset="1" stop-color="#e0bc4f"/>
    </linearGradient>
    <linearGradient id="linear-gradient-4" x1="217.77" y1="314" x2="255.19" y2="311.17" gradientUnits="userSpaceOnUse">
      <stop offset="0" stop-color="#64783e"/>
      <stop offset=".22" stop-color="#67793e"/>
      <stop offset=".4" stop-color="#707f3f"/>
      <stop offset=".56" stop-color="#818842"/>
      <stop offset=".71" stop-color="#989445"/>
      <stop offset=".85" stop-color="#b7a549"/>
      <stop offset=".99" stop-color="#dbb94e"/>
      <stop offset="1" stop-color="#e0bc4f"/>
    </linearGradient>
    <linearGradient id="linear-gradient-5" x1="204.86" y1="328.16" x2="260.54" y2="324.67" gradientUnits="userSpaceOnUse">
      <stop offset="0" stop-color="#64783e"/>
      <stop offset=".17" stop-color="#687a3e"/>
      <stop offset=".35" stop-color="#758140"/>
      <stop offset=".54" stop-color="#8b8d43"/>
      <stop offset=".74" stop-color="#a99e47"/>
      <stop offset=".93" stop-color="#d0b34c"/>
      <stop offset="1" stop-color="#e0bc4f"/>
    </linearGradient>
    <linearGradient id="linear-gradient-6" x1="206.94" y1="363.18" x2="267.34" y2="335.92" gradientUnits="userSpaceOnUse">
      <stop offset="0" stop-color="#64783e"/>
      <stop offset=".32" stop-color="#66793e"/>
      <stop offset=".49" stop-color="#6e7d3f"/>
      <stop offset=".63" stop-color="#7b8441"/>
      <stop offset=".74" stop-color="#8e8f43"/>
      <stop offset=".84" stop-color="#a79c47"/>
      <stop offset=".93" stop-color="#c5ad4b"/>
      <stop offset="1" stop-color="#e0bc4f"/>
    </linearGradient>
    <linearGradient id="linear-gradient-7" x1="112.02" y1="267.14" x2="186.68" y2="327.56" gradientUnits="userSpaceOnUse">
      <stop offset="0" stop-color="#e0bc4f"/>
      <stop offset=".03" stop-color="#d9b84e"/>
      <stop offset=".25" stop-color="#afa148"/>
      <stop offset=".45" stop-color="#8e8f43"/>
      <stop offset=".65" stop-color="#778240"/>
      <stop offset=".84" stop-color="#687a3e"/>
      <stop offset="1" stop-color="#64783e"/>
    </linearGradient>
    <linearGradient id="linear-gradient-8" x1="93.95" y1="319.89" x2="376.29" y2="319.89" gradientUnits="userSpaceOnUse">
      <stop offset="0" stop-color="#e0bc4f"/>
      <stop offset=".16" stop-color="#dbb94e"/>
      <stop offset=".35" stop-color="#ccb14c"/>
      <stop offset=".55" stop-color="#b5a449"/>
      <stop offset=".75" stop-color="#949244"/>
      <stop offset=".97" stop-color="#6a7b3e"/>
      <stop offset="1" stop-color="#64783e"/>
    </linearGradient>
    <linearGradient id="linear-gradient-9" x1="332.45" y1="237.16" x2="375.18" y2="240.8" gradientUnits="userSpaceOnUse">
      <stop offset="0" stop-color="#64783e"/>
      <stop offset=".15" stop-color="#6d7d3f"/>
      <stop offset=".39" stop-color="#878b42"/>
      <stop offset=".7" stop-color="#b1a248"/>
      <stop offset="1" stop-color="#e0bc4f"/>
    </linearGradient>
    <linearGradient id="linear-gradient-10" x1="280.87" y1="232.98" x2="342.81" y2="232.98" gradientUnits="userSpaceOnUse">
      <stop offset="0" stop-color="#e0bc4f"/>
      <stop offset=".4" stop-color="#b6b230"/>
      <stop offset=".79" stop-color="#94aa16"/>
      <stop offset="1" stop-color="#88a80d"/>
    </linearGradient>
  </defs>
  <g id="Layer_1" data-name="Layer 1">
    <g>
      <path d="m598.38,193.6c-2.97,8.4-5.93,16.81-8.9,25.21-.46-.92-1.19-2.23-2.22-3.71-8.83-12.54-26.76-17-40.78-15.57-16.73,1.7-30.55,12.06-37.82,24.47-6.35,10.83-6.52,21.19-6.67,30.4-.18,10.43-.4,23.73,8.16,36.34,11.7,17.23,31.42,20.79,36.34,21.5,27.49,4,47.2-14.63,49.68-17.06,2.22,2.22,4.45,4.45,6.67,6.67-1.63,2.36-4.06,5.54-7.42,8.9-10.41,10.43-21.69,14.55-26.7,16.31-30.73,10.84-60.03-2.96-61.55-3.71-6.48-3.17-22.34-11.2-32.63-29.66-13.11-23.52-7.69-46.94-5.93-53.39,5.26-19.3,17.13-30.77,22.25-35.59,3.71-3.5,16.23-14.66,36.34-20.02,18.9-5.04,34.43-2.03,44.49,0,11.37,2.3,20.43,5.92,26.7,8.9Z" style="fill: #64783e; stroke: #000; stroke-miterlimit: 10; stroke-width: 7px;"/>
      <path d="m599.86,235.13c4.45,3.46,8.9,6.92,13.35,10.38v65.25c-1.48,4.94-2.97,9.89-4.45,14.83h38.56v-1.48c-1.98-2.97-3.95-5.93-5.93-8.9v-45.97c1.27-2.91,3.2-7.06,5.93-11.86,2.82-4.96,4.22-7.44,5.93-8.9,7.12-6.07,21.34-.22,25.21,1.48v-22.25c-1.9-1.07-5.55-2.79-10.38-2.97,0,0-4.29-.16-8.9,1.48-11.58,4.13-18.52,19.09-19.28,20.76h-1.48v-20.76h-2.97c-11.86,2.97-23.73,5.93-35.59,8.9Z" style="fill: #64783e; stroke: #000; stroke-miterlimit: 10; stroke-width: 7px;"/>
      <path d="m783.76,244.44c-10.38-13.12-24.64-16.59-31.14-18.18-3.15-.77-14.93-3.37-29.66,0-7.18,1.65-20.55,4.71-31.14,16.66-16.5,18.62-12.51,43.31-11.86,46.96.92,5.18,2.99,16.03,11.86,25.75,12.86,14.09,30.17,15.03,34.11,15.15h25.21c5.1-.97,18.75-4.31,29.66-16.66,1.83-2.07,7.11-8.39,10.38-18.18.75-2.24,9.56-30.04-7.42-51.5Zm-19.28,41.11c-1.01,7.11-3.18,22.28-14.83,28.18-7.62,3.85-15.75,1.96-17.8,1.48-1.86-.43-7.06-1.71-11.86-5.93-1.85-1.62-5.95-5.71-8.9-16.31-1.63-5.87-7.8-28.02,4.45-44.49,1.75-2.36,4.82-6.38,10.38-8.9,6.69-3.03,14.59-2.77,20.76,0,14.18,6.35,16.88,24.83,17.8,31.14.37,2.56.97,8.01,0,14.83Z" style="fill: #64783e; stroke: #000; stroke-miterlimit: 10; stroke-width: 7px;"/>
      <path d="m914.27,261.82c-1.08-4.11-5.71-21.62-22.25-31.14-9.66-5.57-19.03-5.87-22.25-5.93-4.26-.09-13.86-.12-23.73,5.93-7.21,4.42-11.34,10.11-13.35,13.35v-19.28c-13.35,3.46-26.7,6.92-40.04,10.38,1.51.43,4.65,1.54,7.42,4.45,3.48,3.66,4.16,8.23,4.45,10.38,2.67,20.09,1.57,77.99,1.48,83.05-.12,6.68-.07,12.28,0,16.31,11.37.49,22.74.99,34.11,1.48l-4.45-8.9v-23.73c2.44,2.62,6.81,6.57,13.33,8.89,1.2.43,3.11,1.03,5.95,1.49,18.05,2.95,32.63-4.45,32.63-4.45,2.26-1.15,9.7-5.15,16.31-13.35,10.44-12.93,15-31.45,10.38-48.94Zm-32.64,38.56c-1.06,2.03-7.42,14.19-19.33,14.83-10.81.58-18.03-8.71-19.33-10.38-5.62-7.23-5.84-15.09-5.95-23.73-.15-11.99-.38-29.64,11.89-37.08,5.87-3.55,14.18-4.53,20.81-1.48,13.09,6.01,14.18,25.03,14.87,37.08.42,7.29.7,13.73-2.97,20.76Z" style="fill: #64783e; stroke: #000; stroke-miterlimit: 10; stroke-width: 7px;"/>
      <path d="m1037.37,257.37c-12.31-9.95-26.35-9.17-29.66-8.9,2.12-.44,5.31-1.27,8.9-2.97,3.63-1.72,17.3-8.86,20.76-23.73.56-2.41,1.65-7.36,0-13.35-2.45-8.87-9.58-13.72-13.35-16.31-12.85-8.84-40.48-11.61-74.15-5.93-10.88,1.98-21.75,3.95-32.63,5.93,3.46,3.46,6.92,6.92,10.38,10.38v112.71c-1.48,3.46-2.97,6.92-4.45,10.38,14.32.54,42.62,1.48,72.67,1.48,3.4,0,11.2-.14,20.76-2.97,7.6-2.25,21.4-6.33,29.66-19.28,1.69-2.66,6.01-9.62,5.93-19.28-.13-16.3-12.67-26.43-14.83-28.18Zm-80.09-57.84c7.57-.38,21.15-.88,32.63,0,1.29.1,3.47.29,5.93,1.48,8.24,4,10.11,14.62,10.38,16.31.22,1.38,1.93,13.27-5.93,20.76-4.16,3.96-8.89,4.69-17.8,5.93-5.84.81-14.52,1.44-25.21,0v-44.49Zm59.32,91.95c-.15.57-3.64,13.35-14.83,17.8-3.58,1.42-6.62,1.47-8.9,1.48-11.19.07-22.46.08-34.11,0-.49-17.8-.99-35.59-1.48-53.39h28.18c11.64-1,22.62,4.14,28.18,13.35,5.71,9.46,3.33,19.33,2.97,20.76Z" style="fill: #dfbe4e; stroke: #000; stroke-miterlimit: 10; stroke-width: 7px;"/>
      <path d="m1049.97,234.38c3.95,3.46,7.91,6.92,11.86,10.38.49,22.25.99,44.49,1.48,66.74-1.48,4.94-2.97,9.89-4.45,14.83h40.04c-1.48-3.95-2.97-7.91-4.45-11.86.49-29.66.99-59.32,1.48-88.98h-10.38c-11.86,2.97-23.73,5.93-35.59,8.9Z" style="fill: #dfbe4e; stroke: #000; stroke-miterlimit: 10; stroke-width: 7px;"/>
      <path d="m1211.63,238.83c-14.36-13.7-31.91-14.47-40.04-14.83-12.33-.54-22.25,2.27-28.18,4.45-5.54,2.4-18.77,9.06-26.7,23.73-11.43,21.15-7.01,50,10.38,65.25,11.32,9.93,24.77,11.15,32.63,11.86,24.75,2.24,43.55-8.81,50.42-13.35,2.84-2.5,16.33-14.92,17.8-35.59.11-1.6,1.36-24.65-16.31-41.53Zm-13.35,45.97c-.69,8.62-1.57,19.58-10.38,26.7-9.09,7.34-22.21,7.03-31.14,2.97-18.46-8.4-23.81-35.07-17.8-53.39,1.23-3.76,6.37-19.42,20.76-23.73,11.11-3.32,20.88,2.17,22.25,2.97,19,11.07,16.66,40.19,16.31,44.49Z" style="fill: #dfbe4e; stroke: #000; stroke-miterlimit: 10; stroke-width: 7px;"/>
      <path d="m1056.65,190.63c-.37,1.72-2.46,12.43,4.45,20.76,1.3,1.57,7.04,8.49,14.83,7.42,6.16-.85,9.58-6.16,10.38-7.42.41-.64,5.16-8.32,1.48-16.31-2.73-5.92-8.26-8.08-10.38-8.9-1.45-.56-8-3.11-14.83,0-2.91,1.32-4.84,3.2-5.93,4.45Z" style="fill: #64783e; stroke: #000; stroke-miterlimit: 10; stroke-width: 7px;"/>
      <path d="m1090.76,218.81c7.12-1.3,11.05-1.54,13.35-1.48.69.02,2.93.1,5.78-.54,1.12-.25,2.1-.57,3.12-.95,8.96-3.26,13.67-11.36,14.83-13.35.04-.07,1.02-2.02,2.97-5.93,2.94-5.9,3.26-6.57,2.97-7.42-1.25-3.54-10.91-3.08-13.35-2.97-1.99.09-8.06.39-13.35,2.97-9.51,4.64-15.67,16.26-16.31,29.66Z" style="fill: #64783e; stroke: #000; stroke-miterlimit: 10; stroke-width: 7px;"/>
      <text/>
      <text/>
    </g>
  </g>
  <g id="Layer_3" data-name="Layer 3">
    <g>
      <circle cx="236.86" cy="243.85" r="205.38" style="stroke: #69773e; stroke-miterlimit: 10; stroke-width: .5px;"/>
      <g>
        <path d="m292.54,343.12c3.55-.17,7.11-.34,10.66-.51.17.75.47,1.83,1.02,3.05,3.82,8.54,14.03,11.31,17.26,12.18,11.51,3.12,21.3-.76,24.36-2.03,2.95-1.22,3.22-1.76,6.09-3.05,8.53-3.81,16.71-3.73,22.33-3.05-1-2.4-2.59-5.65-5.08-9.14-2.31-3.24-8.6-11.83-20.3-16.24-4.05-1.53-16.41-6.17-28.42,0-5.81,2.98-9.32,7.38-11.17,10.15.7,0,1.76,0,3.05,0,8.46.05,13.2.08,18.27,1.02,2.49.46,6.01,1.31,10.15,3.05-14.89.34-29.78.68-44.66,1.02-1.18,1.18-2.37,2.37-3.55,3.55Z" style="fill: #64783e; stroke: #000; stroke-miterlimit: 10; stroke-width: .5px;"/>
        <path d="m321.98,147.2c.44-.13.77-.81,1.02-5.08.3-5.37.46-8.06,0-10.15-1.2-5.47-4.8-9.21-7.11-11.17-.63,1.04-1.55,2.78-2.03,5.08-1.12,5.37.97,9.81,3.05,14.21.61,1.3,3.55,7.54,5.08,7.11Z" style="fill: #e0bc4f; stroke: #000; stroke-miterlimit: 10; stroke-width: .5px;"/>
        <path d="m319.95,144.16c.54-1.29-4.67-5.01-9.14-7.11-3.5-1.64-9.55-3.71-18.27-3.05,2.52,4.09,5.42,6.13,7.11,7.11,3.01,1.74,6.74,2.18,14.21,3.05,5.41.63,5.96.32,6.09,0Z" style="fill: #e0bc4f; stroke: #000; stroke-miterlimit: 10; stroke-width: .5px;"/>
        <path d="m338.22,178.67c.44-.05.21-1.67,1.02-4.06,1.13-3.34,3.24-5.11,4.06-6.09,1.8-2.16,2.68-6.87-2.03-18.27-.85.66-1.96,1.65-3.05,3.05-2.09,2.69-2.84,5.29-3.05,6.09-.23.88-.68,2.93,0,8.12.68,5.18,2.19,11.27,3.05,11.17Z" style="fill: #e0bc4f; stroke: #000; stroke-miterlimit: 10; stroke-width: .5px;"/>
        <path d="m334.16,174.61c.19-.61-1.68-1.18-4.06-4.06-1.92-2.33-2.7-4.38-3.05-5.08-1.3-2.61-6.09-5.19-21.32-5.08.05,1.03.25,2.51,1.02,4.06,1.6,3.21,4.66,4.73,8.12,6.09,8.62,3.39,18.84,5.46,19.29,4.06Z" style="fill: #e0bc4f; stroke: #000; stroke-miterlimit: 10; stroke-width: .5px;"/>
        <path d="m184.43,94.93c-2.61,4.74-6.25,12.8-7.11,23.35-.33,4.03-.15,7.26,0,9.14,1.42,17.38,10.99,29.51,14.21,33.5,2.89,3.59,7.47,8.5,14.21,13.2,6.43-4.06,12.86-8.12,19.29-12.18-4.22-1.51-11.35-4.67-18.27-11.17-6.81-6.39-10.39-13.17-12.18-17.26,16.92-1.02,33.84-2.03,50.75-3.05,8.97-.54,15.79-1.42,19.29-2.03,1.87-.33,4.66-.89,7.11-3.05.45-.4.8-.77,1.02-1.02h-15.23c-21.66.34-43.31.68-64.97,1.02-1.38-2.89-3.04-7.03-4.06-12.18-2.12-10.71-.29-19.93-2.03-20.3-.38-.08-1,.24-2.03,2.03Z" style="fill: #69773e; stroke: #000; stroke-miterlimit: 10; stroke-width: .5px;"/>
        <path d="m197.63,114.21c-.48,2.08.92,3.93,1.02,4.06,2.46,3.16,8.31,2.65,28.42-2.03,11.17-2.6,16.75-3.9,17.26-4.06,6.9-2.21,16.65-6.1,27.41-13.2-3.52.81-8.79,1.95-15.23,3.05-11.16,1.9-16.29,2.05-31.47,4.06-20.65,2.74-26.57,4.51-27.41,8.12Z" style="fill: url(#linear-gradient); stroke: #000; stroke-miterlimit: 10; stroke-width: .5px;"/>
        <path d="m205.75,142.64c4.07,2.28,15.05,7.7,29.44,6.09,9.44-1.05,16.44-4.69,20.3-7.11-16.58.34-33.16.68-49.74,1.02Z" style="fill: #e0bc4f; stroke: #000; stroke-miterlimit: 10; stroke-width: .5px;"/>
        <path d="m284.93,85.79v12.18c-.73,4.63-2.14,11.06-5.08,18.27-1.64,4.03-7.36,17.13-22.33,31.47-3.08,2.95-5.51,4.95-7.74,6.55-4.51,3.23-7.22,4.58-12.56,7.79,0,0-3.99,2.4-12.18,7.99-10.97,7.49-28.9,19.73-34.51,40.6-3.82,14.2-.37,26.54,1.02,31.47.57,2.02,3.4,11.77,11.17,21.32,4.66,5.73,8.7,8.45,13.2,9.14.69.11,5.22.75,6.09-1.02.85-1.72-2.51-4.22-7.11-10.15-1.05-1.35-5.22-6.84-8.12-13.2-1.41-3.1-3.18-7.85-4.06-14.21,15.56-.34,31.13-.68,46.69-1.02,5.67-.44,12.01-1.28,12.18-3.05.03-.33-.12-1-2.03-2.03-9.59-5.18-31.78-2.35-49.74-2.03-3.29.06-5.89.02-7.11,0,.53-3.3,1.61-8,4.06-13.2,2.6-5.53,5.57-9.13,8.12-12.18,1.62-1.94,6.22-7.26,14.21-13.2,7.06-5.25,8.38-4.66,18.27-11.17,3.81-2.51,9.65-6.38,16.24-12.18,5.81-5.12,10.81-9.51,15.23-16.24,6.58-10.01,8.22-19.64,9.14-25.38,2.52-15.71-.53-28.85-3.05-36.54" style="fill: #e0bc4f; stroke: #000; stroke-miterlimit: 10; stroke-width: .5px;"/>
        <path d="m211.84,214.71c.9-.84,2.25-1.98,4.06-3.05,1.94-1.13,5.35-2.73,17.26-3.05,12.64-.33,16.6,1.27,18.27,2.03,2.24,1.02,3.95,2.19,5.08,3.05-14.89.34-29.78.68-44.66,1.02Z" style="fill: url(#linear-gradient-2); stroke: #000; stroke-miterlimit: 10; stroke-width: .5px;"/>
        <path d="m210.83,245.16c2.46,1.58,13.8,8.52,27.41,5.08,5.51-1.39,9.59-4.03,12.18-6.09-13.2.34-26.39.68-39.59,1.02Z" style="fill: url(#linear-gradient-3); stroke: #000; stroke-miterlimit: 10; stroke-width: .5px;"/>
        <path d="m246.36,297.95c1.93,1.44,4.43,3.45,7.11,6.09,1.75,1.73,5.62,5.73,9.14,11.17,5.66,8.75,8.05,17.58,9.14,23.35,1.43-.58,3.64-1.75,5.08-4.06,1.75-2.81,1.58-6.06.51-10.66-2.25-9.68-6.6-17.15-9.64-21.82-2.19-3.37-5.51-8.03-10.15-13.2-3.72,3.05-7.44,6.09-11.17,9.14Z" style="fill: #69773e; stroke: #000; stroke-miterlimit: 10; stroke-width: .5px;"/>
        <path d="m258.54,314.19c-2.66-1.63-9.23-5.15-18.27-5.08-9.82.08-16.75,4.35-19.29,6.09,12.52-.34,25.04-.68,37.56-1.02Z" style="fill: url(#linear-gradient-4); stroke: #000; stroke-miterlimit: 10; stroke-width: .5px;"/>
        <path d="m204.74,327.38c2.68.62,6.52,1.41,11.17,2.03,22.44,3.01,44.63-.43,44.66-3.05.02-1.2-4.65-2.14-9.14-3.05-8.5-1.71-24.87-3.47-46.69,4.06Z" style="fill: url(#linear-gradient-5); stroke: #000; stroke-miterlimit: 10; stroke-width: .5px;"/>
        <path d="m265.64,336.52c-2.34-3.11-17.35,6.54-39.59,14.21-10.69,3.69-19.88,5.83-26.39,7.11,15.3,1.06,27.79-.4,36.54-2.03,17.58-3.27,23.91-7.91,27.41-13.2.93-1.4,3.1-4.67,2.03-6.09Z" style="fill: url(#linear-gradient-6); stroke: #000; stroke-miterlimit: 10; stroke-width: .5px;"/>
        <path d="m192.56,192.38c-3.21,5.45-8.97,16.98-9.14,32.48-.24,22.59,11.55,38.14,15.23,42.63-2.96-1.06-6.01-2.08-9.14-3.05-16.23-5.03-31.64-7.79-45.68-9.14.62-7.05,2.66-19.01,10.15-31.47,12.58-20.91,32-29.05,38.57-31.47Z" style="fill: #e0bc4f; stroke: #000; stroke-miterlimit: 10; stroke-width: .5px;"/>
        <path d="m193.57,288.81c-2.04,3.63-4.11,7.7-6.09,12.18-2.06,4.67-3.73,9.1-5.08,13.2-1.61-1.71-3.3-3.4-5.08-5.08-18.57-17.44-40.25-26.08-58.88-30.45,3.05,1.35,6.09,2.71,9.14,4.06,8.4,3.78,18.67,9.27,29.44,17.26,10.38,7.7,18.4,15.6,24.36,22.33-4.93.09-10.01.1-15.23,0-7.76-.14-15.21-.5-22.33-1.02,2.03.68,4.06,1.35,6.09,2.03,10.83,3.05,21.66,6.09,32.48,9.14,1.35,5.08,2.71,10.15,4.06,15.23-9.64-.27-24.29-2.11-39.59-10.15-37.55-19.72-47.18-60.04-48.72-67,14.96-2.8,42.34-5.55,72.07,6.09,9.15,3.58,16.91,7.9,23.35,12.18Z" style="fill: url(#linear-gradient-7); stroke: #000; stroke-miterlimit: 10; stroke-width: .5px;"/>
        <path d="m137.74,242.12c.4.84.93,2.25,1.02,4.06.11,2.36-.59,4.17-1.02,5.08-7.74.25-16.63.05-26.39-1.02-8.67-.95-16.49-2.42-23.35-4.06,2.91-.2,7.52-.53,13.2-1.02,9.47-.8,13.55-1.4,22.33-2.03,6-.43,10.92-.78,14.21-1.02Z" style="fill: #e0bc4f; stroke: #000; stroke-miterlimit: 10; stroke-width: .5px;"/>
        <path d="m140.79,226.89c-.68,2.03-1.35,4.06-2.03,6.09-4.36-1.3-8.94-2.81-13.7-4.57-4.89-1.81-9.46-3.69-13.7-5.58,4.04-.26,9.04-.26,14.72.51,5.86.79,10.82,2.18,14.72,3.55Z" style="fill: #e0bc4f; stroke: #000; stroke-miterlimit: 10; stroke-width: .5px;"/>
        <path d="m150.94,211.66c-1.02,1.69-2.03,3.38-3.05,5.08-6.08-3.12-12.56-6.81-19.29-11.17-9.42-6.11-17.52-12.37-24.36-18.27,8.72,3.35,18.33,7.65,28.42,13.2,6.7,3.68,12.79,7.45,18.27,11.17Z" style="fill: #e0bc4f; stroke: #000; stroke-miterlimit: 10; stroke-width: .5px;"/>
        <path d="m165.15,200.5c-1.69,1.35-3.38,2.71-5.08,4.06-3.16-3.3-6.39-6.85-9.64-10.66-4.31-5.04-8.19-9.97-11.67-14.72,4.59,2.92,9.57,6.43,14.72,10.66,4.42,3.63,8.3,7.24,11.67,10.66Z" style="fill: #e0bc4f; stroke: #000; stroke-miterlimit: 10; stroke-width: .5px;"/>
        <path d="m179.36,191.36c-2.03,1.35-4.06,2.71-6.09,4.06-3.41-5.4-6.86-11.49-10.15-18.27-5.72-11.79-9.56-22.87-12.18-32.48,6.71,8.46,13.74,18.58,20.3,30.45,3.09,5.6,5.78,11.04,8.12,16.24Z" style="fill: #e0bc4f; stroke: #000; stroke-miterlimit: 10; stroke-width: .5px;"/>
        <path d="m189.51,188.32c-1.54-2.93-3.09-6.14-4.57-9.64-1.9-4.5-3.39-8.76-4.57-12.69,2.78,3.04,5.72,6.58,8.63,10.66,2.13,2.99,3.98,5.89,5.58,8.63-1.69,1.02-3.38,2.03-5.08,3.05Z" style="fill: #e0bc4f; stroke: #000; stroke-miterlimit: 10; stroke-width: .5px;"/>
        <path d="m357,266.48c-5.91,1.59-17.24,4.63-25.38,14.21-1.76,2.07-4.22,6.45-9.14,15.23-3.95,7.04-6.64,12.3-7.11,13.2-5.48,10.56-18.24,25.2-33.5,35.53-23.27,15.75-45.95,18.16-57.86,19.29-11.27,1.06-36.04,3.1-63.95-9.14-4.21-1.84-40.54-18.34-58.88-54.82-3.85-7.67-6.52-15.44-7.11-15.23-.95.34,2.66,22.08,15.23,41.62,13.69,21.28,32.45,31.3,40.6,35.53,37.16,19.26,81.41,16.1,110.65,2.03,7.18-3.45,33.69-18.56,44.66-30.45,1.24-1.34,5.7-6.36,13.2-10.15,4.87-2.46,9.3-3.54,12.18-4.06,0,0,10.21-2.25,19.29-8.12,12.94-8.37,18.33-21.37,21.32-28.42,2.9-6.83,4.34-13.15,5.08-18.27-8.21-.41-14.83.83-19.29,2.03Zm-18.27,34.51c-1.05.96-5.52,5.03-12.18,9.14-2.76,1.7-5.7,3.51-6.09,3.05-.44-.53,2.29-4.06,16.24-17.26,7.11-5.75,14.21-11.5,21.32-17.26-2.64,3.69-10.19,13.98-19.29,22.33Z" style="fill: url(#linear-gradient-8); stroke: #000; stroke-miterlimit: 10; stroke-width: .5px;"/>
        <path d="m376.29,211.66c-2.64,1.03-6.21,2.63-10.15,5.08-10.5,6.53-16.27,14.56-20.3,20.3-.5.71-6.95,10.04-11.17,23.35-1.45,4.59-1.44,5.87-1.02,6.09.23.12,1.3.32,9.14-11.17,2.81-4.13,4.41-6.76,5.8-8.94,5.98-9.42,11.85-16.31,20.59-26.58,2.11-2.47,4.48-5.2,7.11-8.12Z" style="fill: url(#linear-gradient-9); stroke: #000; stroke-miterlimit: 10; stroke-width: .5px;"/>
        <path d="m293.05,220.8c.22,1.16.56,2.93,1.02,5.08,3.42,16.27,5.92,20.33,7.11,29.44,1.01,7.71.38,13.74,0,17.26-.29,2.64-1.42,12.03-6.09,23.35-3.62,8.78-6.41,11.71-9.14,21.32-1.08,3.82-1.69,7.02-2.03,9.14,1.79-.66,4.45-1.86,7.11-4.06,2.64-2.19,3.86-4.19,6.09-7.11,3.47-4.53,5.66-6.4,8.12-9.14,6.69-7.42,11.8-16.5,16.24-24.36,3.93-6.95,8.17-14.54,12.18-25.38,1.5-4.06,4.06-11.57,6.09-21.32,1.28-6.13,2.87-14,3.05-24.36.33-20.06-4.91-34.45-6.09-37.56-1.94-5.11-3.91-8.92-5.08-11.17-5.15-9.88-10.85-17.3-15.23-22.33,1.04,1.76,2.45,4.18,4.06,7.11,1.98,3.61,5.05,9.23,8.12,16.24.87,1.98,3.29,7.52,5.08,13.2,3.77,11.95,3.96,22.13,4.06,28.42.34,21.97-5.54,39.41-10.15,52.79-1.96,5.67-3.82,10.24-5.08,13.2,1.65-11.03,1.55-20.43,1.02-27.41-.68-8.94-2.2-15.88-3.05-19.29-.74-2.98-1.91-7.57-4.06-13.2-6.49-16.92-15.21-26.29-17.26-28.42-3.64-3.78-7.26-6.63-12.18-8.12-2.48-.75-4.63-.96-6.09-1.02,1.5,1.41,3.64,3.49,6.09,6.09,5.13,5.45,14.12,14.73,20.3,27.41,9.44,19.35,9.29,36.91,9.14,44.66-.12,6.35-.36,14.9-4.06,25.38-3.24,9.18-7.78,15.98-11.17,20.3,1.2-2.66,2.73-6.46,4.06-11.17,2.07-7.35,2.56-13.1,3.05-19.29.6-7.57.99-12.53,0-19.29-.68-4.68-1.33-9.13-4.06-14.21-3.43-6.39-8.23-10.21-11.17-12.18Z" style="fill: url(#linear-gradient-10); stroke: #000; stroke-miterlimit: 10; stroke-width: .5px;"/>
        <path d="m358.02,194.41c-1.96.17-5.22.75-8.12,3.05-4.92,3.9-5.57,10.2-6.09,15.23-.3,2.93-.42,7.57,1.02,13.2.86-1.1,1.9-2.46,3.05-4.06.96-1.34,2.42-3.45,4.06-6.09,1.44-2.32,3.07-4.94,4.06-7.11,1.17-2.56,2.71-7.19,2.03-14.21Z" style="fill: #e0bc4f; stroke: #000; stroke-miterlimit: 10; stroke-width: .5px;"/>
        <path d="m335.18,218.26c.12-1.23.2-2.99,0-5.08-.15-1.61-.61-6.46-3.05-10.15-4.21-6.38-12.86-7.02-14.21-7.11-.19,1.5-.16,2.85,0,4.06,1.48,11.34,15.06,17.34,17.26,18.27Z" style="fill: #e0bc4f; stroke: #000; stroke-miterlimit: 10; stroke-width: .5px;"/>
        <path d="m345.33,197.96c.46-.07.1-1.68,1.02-4.06,1.31-3.41,3.88-4.86,5.08-6.09,2.01-2.07,3.2-6.72-1.02-18.27-1.08,1.41-2.55,3.47-4.06,6.09-2.15,3.74-3.5,6.09-4.06,9.14-1.24,6.77,2.1,13.34,3.05,13.2Z" style="fill: #e0bc4f; stroke: #000; stroke-miterlimit: 10; stroke-width: .5px;"/>
        <path d="m332.13,156.34c1.65-.21,2.54-3.31,3.05-5.08.19-.67,1.09-3.97,0-8.12-1.31-5.01-4.67-8.01-6.09-9.14-.2.92-.53,2.35-1.02,4.06-1.06,3.74-1.71,4.71-2.03,6.09-1.27,5.41,3.45,12.51,6.09,12.18Z" style="fill: #e0bc4f; stroke: #000; stroke-miterlimit: 10; stroke-width: .5px;"/>
        <path d="m335.18,195.93c1.66-1.51.19-5.57,0-6.09-2.43-6.69-11.27-10.83-22.33-11.17.56,1.6,1.48,3.78,3.05,6.09,5.7,8.44,16.51,13.68,19.29,11.17Z" style="fill: #e0bc4f; stroke: #000; stroke-miterlimit: 10; stroke-width: .5px;"/>
        <path d="m321.98,156.34c.81-1.67-2.57-4.88-4.06-6.09-6.48-5.26-15.17-3.52-17.26-3.05.91,1.72,2.48,4.08,5.08,6.09,6.09,4.71,15.13,5.35,16.24,3.05Z" style="fill: #e0bc4f; stroke: #000; stroke-miterlimit: 10; stroke-width: .5px;"/>
        <path d="m308.78,130.96c.96-.75.29-3.08,0-4.06-2.24-7.74-12.41-10.67-14.21-11.17.25,1.57.78,3.76,2.03,6.09,3.37,6.26,10.4,10.54,12.18,9.14Z" style="fill: #e0bc4f; stroke: #000; stroke-miterlimit: 10; stroke-width: .5px;"/>
        <path d="m275.79,201.51c-7.49-12.06-17.3-18.48-22.33-21.32-7.44,5.75-14.89,11.5-22.33,17.26,3.29-.04,9.68.34,16.24,4.06,10.11,5.73,16.72,17.19,16.24,28.42-.41,9.62-5.89,16.1-11.17,22.33-8.41,9.94-13.72,9.97-33.5,24.36-10.47,7.62-15.71,11.44-19.79,16.75-3.19,4.14-12.7,16.52-11.67,34.01.76,12.95,6.93,22.22,10.15,26.39.11-2.71.36-6.57,1.02-11.17,1.13-7.96,2.08-14.63,5.08-20.3,2-3.8,4.58-6.5,21.32-17.26,13.65-8.77,14.24-8.45,21.32-13.2,13.05-8.75,20.76-13.92,27.41-23.35,2.46-3.49,9.94-14.38,11.17-30.45,1.35-17.63-5.63-30.9-9.14-36.54Zm-9.64,60.4c-6.7,10.07-15.88,16.08-22.33,20.3-9.54,6.24-15.66,7.84-25.38,16.24-4.17,3.61-7.24,6.94-9.14,9.14-3.38,3.38-6.77,6.77-10.15,10.15,2.86-5.46,7.63-13.36,15.23-21.32,7.22-7.57,10.35-8.23,26.39-20.3,22.71-17.08,27.56-24.11,30.45-30.45,2.57-5.64,3.6-10.76,4.06-14.21-.51,15.68-5.92,25.62-9.14,30.45Z" style="fill: #64783e; stroke: #000; stroke-miterlimit: 10; stroke-width: .5px;"/>
      </g>
      <path d="m237.87,50.34c-106.06,0-192.04,85.98-192.04,192.04s85.98,192.04,192.04,192.04,192.04-85.98,192.04-192.04S343.93,50.34,237.87,50.34Zm-.69,370.99c-98.45,0-178.25-79.81-178.25-178.25S138.73,64.82,237.18,64.82s178.25,79.81,178.25,178.25-79.81,178.25-178.25,178.25Z" style="fill: #69773e; stroke: #000; stroke-miterlimit: 10; stroke-width: .5px;"/>
    </g>
  </g>
</svg>