<?xml version="1.0" encoding="UTF-8"?>
<svg width="800" height="300" viewBox="0 0 800 300" xmlns="http://www.w3.org/2000/svg">

  <!-- Wheat Stem -->
  <line x1="150" y1="60" x2="150" y2="240"
        stroke="#D4A017"
        stroke-width="6"
        stroke-linecap="round"/>

  <!-- Wheat Grains Left -->
  <ellipse cx="130" cy="90" rx="18" ry="10" fill="#F4C430" transform="rotate(-35 130 90)"/>
  <ellipse cx="130" cy="120" rx="18" ry="10" fill="#F4C430" transform="rotate(-35 130 120)"/>
  <ellipse cx="130" cy="150" rx="18" ry="10" fill="#F4C430" transform="rotate(-35 130 150)"/>
  <ellipse cx="130" cy="180" rx="18" ry="10" fill="#F4C430" transform="rotate(-35 130 180)"/>

  <!-- Wheat Grains Right -->
  <ellipse cx="170" cy="105" rx="18" ry="10" fill="#F4C430" transform="rotate(35 170 105)"/>
  <ellipse cx="170" cy="135" rx="18" ry="10" fill="#F4C430" transform="rotate(35 170 135)"/>
  <ellipse cx="170" cy="165" rx="18" ry="10" fill="#F4C430" transform="rotate(35 170 165)"/>
  <ellipse cx="170" cy="195" rx="18" ry="10" fill="#F4C430" transform="rotate(35 170 195)"/>

  <!-- Brand Name -->
  <text x="250" y="170"
        font-family="Poppins, Arial, sans-serif"
        font-size="80"
        font-weight="600"
        fill="#1E3A5F">
    CropBio
  </text>

</svg>
