<?xml version="1.0" encoding="UTF-8"?>
<svg id="Layer_1" data-name="Layer 1" xmlns="http://www.w3.org/2000/svg" xmlns:xlink="http://www.w3.org/1999/xlink" viewBox="0 0 870 371.83">
  <defs>
    <style>
      .cls-1 {
        fill: #69773e;
      }

      .cls-1, .cls-2, .cls-3, .cls-4, .cls-5, .cls-6, .cls-7, .cls-8, .cls-9 {
        stroke: #000;
        stroke-miterlimit: 10;
        stroke-width: .5px;
      }

      .cls-2 {
        fill: url(#linear-gradient-3);
      }

      .cls-4 {
        fill: url(#linear-gradient);
      }

      .cls-5 {
        fill: url(#linear-gradient-5);
      }

      .cls-6 {
        fill: url(#linear-gradient-2);
      }

      .cls-7 {
        fill: #64783e;
      }

      .cls-8 {
        fill: #e0bc4f;
      }

      .cls-9 {
        fill: url(#linear-gradient-4);
      }
    </style>
    <linearGradient id="linear-gradient" x1="138.82" y1="54.36" x2="211.6" y2="37.03" gradientUnits="userSpaceOnUse">
      <stop offset="0" stop-color="#69773e"/>
      <stop offset=".17" stop-color="#6d793e"/>
      <stop offset=".36" stop-color="#7a8140"/>
      <stop offset=".55" stop-color="#8f8d43"/>
      <stop offset=".75" stop-color="#ae9f47"/>
      <stop offset=".95" stop-color="#d4b54d"/>
      <stop offset="1" stop-color="#e0bc4f"/>
    </linearGradient>
    <linearGradient id="linear-gradient-2" x1="51.66" y1="202.66" x2="125.22" y2="262.17" gradientUnits="userSpaceOnUse">
      <stop offset="0" stop-color="#e0bc4f"/>
      <stop offset=".03" stop-color="#d9b84e"/>
      <stop offset=".25" stop-color="#afa148"/>
      <stop offset=".45" stop-color="#8e8f43"/>
      <stop offset=".65" stop-color="#778240"/>
      <stop offset=".84" stop-color="#687a3e"/>
      <stop offset="1" stop-color="#64783e"/>
    </linearGradient>
    <linearGradient id="linear-gradient-3" x1="33.86" y1="254.62" x2="312" y2="254.62" gradientUnits="userSpaceOnUse">
      <stop offset="0" stop-color="#e0bc4f"/>
      <stop offset=".43" stop-color="#deba4e"/>
      <stop offset=".59" stop-color="#d7b74d"/>
      <stop offset=".7" stop-color="#cbb04c"/>
      <stop offset=".79" stop-color="#baa749"/>
      <stop offset=".86" stop-color="#a49b46"/>
      <stop offset=".93" stop-color="#898c43"/>
      <stop offset=".99" stop-color="#697b3e"/>
      <stop offset="1" stop-color="#64783e"/>
    </linearGradient>
    <linearGradient id="linear-gradient-4" x1="269.75" y1="175.01" x2="312" y2="175.01" gradientUnits="userSpaceOnUse">
      <stop offset="0" stop-color="#dfbe50"/>
      <stop offset=".1" stop-color="#c6ae4c"/>
      <stop offset=".28" stop-color="#a39947"/>
      <stop offset=".46" stop-color="#888943"/>
      <stop offset=".63" stop-color="#747d40"/>
      <stop offset=".81" stop-color="#68763e"/>
      <stop offset="1" stop-color="#65743e"/>
    </linearGradient>
    <linearGradient id="linear-gradient-5" x1="218" y1="169" x2="279.02" y2="169" gradientUnits="userSpaceOnUse">
      <stop offset="0" stop-color="#e0bc4f"/>
      <stop offset=".4" stop-color="#b6b230"/>
      <stop offset=".79" stop-color="#94aa16"/>
      <stop offset="1" stop-color="#88a80d"/>
    </linearGradient>
  </defs>
  <image width="964" height="412" transform="scale(.9)" xlink:href="Logo_2.png"/>
  <path class="cls-8" d="m258.5,84.5c.44-.12.76-.8,1-5,.3-5.29.45-7.94,0-10-1.18-5.39-4.73-9.07-7-11-.63,1.02-1.53,2.73-2,5-1.1,5.29.96,9.66,3,14,.6,1.28,3.5,7.42,5,7Z"/>
  <path class="cls-8" d="m256.5,81.5c.54-1.27-4.6-4.93-9-7-3.45-1.62-9.41-3.65-18-3,2.48,4.03,5.34,6.04,7,7,2.97,1.72,6.64,2.14,14,3,5.33.62,5.87.31,6,0Z"/>
  <path class="cls-8" d="m274.5,115.5c.43-.05.2-1.64,1-4,1.11-3.29,3.19-5.03,4-6,1.78-2.13,2.64-6.76-2-18-.83.65-1.93,1.63-3,3-2.06,2.65-2.8,5.21-3,6-.22.86-.67,2.89,0,8,.67,5.1,2.16,11.1,3,11Z"/>
  <path class="cls-8" d="m270.5,111.5c.19-.6-1.66-1.16-4-4-1.89-2.29-2.66-4.32-3-5-1.28-2.57-6-5.11-21-5,.04,1.02.24,2.48,1,4,1.57,3.16,4.59,4.66,8,6,8.49,3.33,18.56,5.38,19,4Z"/>
  <path class="cls-1" d="m123,33c-2.57,4.67-6.15,12.61-7,23-.32,3.97-.15,7.15,0,9,1.4,17.12,10.83,29.07,14,33,2.85,3.53,7.36,8.38,14,13,6.33-4,12.67-8,19-12-4.16-1.49-11.18-4.6-18-11-6.71-6.3-10.24-12.98-12-17,16.67-1,33.33-2,50-3,8.84-.53,15.56-1.4,19-2,1.85-.32,4.59-.88,7-3,.45-.39.78-.76,1-1h-15c-21.33.33-42.67.67-64,1-1.36-2.85-3-6.92-4-12-2.08-10.55-.28-19.63-2-20-.37-.08-.98.24-2,2Z"/>
  <path class="cls-7" d="m169,134c3.24-.04,9.54.33,16,4,9.96,5.65,16.47,16.93,16,28-.4,9.48-5.81,15.86-11,22-8.28,9.79-13.52,9.82-33,24-10.32,7.51-15.48,11.27-19.5,16.5-3.14,4.08-12.51,16.27-11.5,33.5.75,12.76,6.82,21.89,10,26,.11-2.67.35-6.47,1-11,1.12-7.84,2.05-14.41,5-20,1.97-3.74,4.51-6.4,21-17,13.44-8.64,14.03-8.33,21-13,12.85-8.62,20.45-13.71,27-23,2.43-3.44,9.79-14.17,11-30,1.33-17.36-5.55-30.44-9-36-7.38-11.88-17.04-18.21-22-21-7.33,5.67-14.67,11.33-22,17Z"/>
  <path class="cls-4" d="m136,52c-.47,2.05.9,3.87,1,4,2.42,3.11,8.19,2.61,28-2,11-2.56,16.51-3.84,17-4,6.8-2.18,16.4-6,27-13-3.47.8-8.66,1.92-15,3-10.99,1.87-16.04,2.02-31,4-20.34,2.7-26.18,4.44-27,8Z"/>
  <path class="cls-8" d="m144,80c4.01,2.25,14.83,7.58,29,6,9.3-1.04,16.19-4.62,20-7-16.33.33-32.67.67-49,1Z"/>
  <path class="cls-8" d="m222,36c-.72,4.56-2.1,10.89-5,18-1.62,3.97-7.25,16.88-22,31-3.04,2.91-5.43,4.88-7.63,6.45-4.44,3.18-7.11,4.51-12.37,7.68,0,0-3.93,2.37-12,7.87-10.81,7.38-28.47,19.44-34,40-3.76,13.99-.36,26.14,1,31,.56,1.99,3.35,11.59,11,21,4.59,5.65,8.57,8.32,13,9,.68.1,5.14.74,6-1,.84-1.69-2.48-4.16-7-10-1.03-1.33-5.14-6.74-8-13-1.39-3.05-3.14-7.73-4-14,15.33-.33,30.67-.67,46-1,5.59-.43,11.83-1.26,12-3,.03-.32-.12-.98-2-2-9.45-5.1-31.3-2.31-49-2-3.24.06-5.81.02-7,0,.52-3.25,1.59-7.88,4-13,2.56-5.44,5.49-9,8-12,1.6-1.91,6.13-7.15,14-13,6.96-5.17,8.25-4.59,18-11,3.76-2.47,9.5-6.28,16-12,5.73-5.04,10.64-9.37,15-16,6.48-9.87,8.09-19.35,9-25,2.49-15.48-.52-28.42-3-36v12Z"/>
  <path class="cls-8" d="m150,151c.88-.83,2.21-1.95,4-3,1.91-1.12,5.27-2.69,17-3,12.45-.33,16.35,1.25,18,2,2.21,1.01,3.89,2.15,5,3-14.67.33-29.33.67-44,1Z"/>
  <path class="cls-8" d="m149,181c2.42,1.56,13.59,8.39,27,5,5.43-1.37,9.45-3.97,12-6-13,.33-26,.67-39,1Z"/>
  <path class="cls-1" d="m184,233c1.91,1.42,4.36,3.4,7,6,1.72,1.7,5.53,5.64,9,11,5.58,8.62,7.93,17.32,9,23,1.92-.85,3.74-2.1,5-4,5.74-8.67-4.33-24.61-9-32-3.7-5.85-7.41-10.21-10-13-3.67,3-7.33,6-11,9Z"/>
  <path class="cls-8" d="m196,249c-2.62-1.6-9.09-5.07-18-5-9.67.08-16.5,4.28-19,6,12.33-.33,24.67-.67,37-1Z"/>
  <path class="cls-8" d="m143,262c2.64.61,6.42,1.39,11,2,22.11,2.96,43.96-.43,44-3,.02-1.18-4.58-2.11-9-3-8.37-1.69-24.5-3.41-46,4Z"/>
  <path class="cls-8" d="m203,271c-2.3-3.06-17.09,6.44-39,14-10.53,3.63-19.58,5.74-26,7,15.07,1.04,27.37-.4,36-2,17.31-3.22,23.55-7.79,27-13,.91-1.38,3.05-4.6,2-6Z"/>
  <path class="cls-8" d="m131,129c-3.16,5.37-8.83,16.73-9,32-.24,22.25,11.37,37.57,15,42-2.92-1.04-5.92-2.04-9-3-15.99-4.95-31.17-7.67-45-9,.61-6.94,2.62-18.73,10-31,12.39-20.59,31.53-28.61,38-31Z"/>
  <path class="cls-6" d="m132,224c-2.01,3.58-4.05,7.58-6,12-2.03,4.6-3.67,8.97-5,13-1.58-1.68-3.25-3.35-5-5-18.29-17.18-39.66-25.69-58-30,3,1.33,6,2.67,9,4,8.28,3.72,18.39,9.14,29,17,10.23,7.58,18.13,15.37,24,22-4.86.09-9.86.09-15,0-7.65-.14-14.99-.49-22-1,2,.67,4,1.33,6,2,10.67,3,21.33,6,32,9,1.33,5,2.67,10,4,15-9.5-.27-23.93-2.08-39-10-36.99-19.43-46.48-59.14-48-66,14.74-2.76,41.71-5.47,71,6,9.01,3.53,16.66,7.78,23,12Z"/>
  <path class="cls-8" d="m77,178c.39.83.92,2.21,1,4,.11,2.32-.58,4.11-1,5-7.62.24-16.38.05-26-1-8.54-.93-16.25-2.38-23-4,2.86-.2,7.4-.53,13-1,9.33-.79,13.35-1.38,22-2,5.91-.43,10.76-.77,14-1Z"/>
  <path class="cls-8" d="m80,163c-.67,2-1.33,4-2,6-4.29-1.28-8.81-2.77-13.5-4.5-4.81-1.78-9.32-3.63-13.5-5.5,3.98-.26,8.91-.25,14.5.5,5.77.78,10.66,2.14,14.5,3.5Z"/>
  <path class="cls-8" d="m90,148c-1,1.67-2,3.33-3,5-5.99-3.08-12.38-6.71-19-11-9.28-6.02-17.26-12.18-24-18,8.59,3.3,18.06,7.54,28,13,6.6,3.62,12.6,7.34,18,11Z"/>
  <path class="cls-8" d="m104,137c-1.67,1.33-3.33,2.67-5,4-3.12-3.25-6.3-6.75-9.5-10.5-4.24-4.96-8.06-9.82-11.5-14.5,4.52,2.87,9.43,6.34,14.5,10.5,4.36,3.58,8.18,7.13,11.5,10.5Z"/>
  <path class="cls-8" d="m118,128c-2,1.33-4,2.67-6,4-3.36-5.32-6.76-11.32-10-18-5.63-11.62-9.41-22.53-12-32,6.61,8.33,13.53,18.3,20,30,3.05,5.51,5.7,10.87,8,16Z"/>
  <path class="cls-8" d="m128,125c-1.52-2.88-3.04-6.05-4.5-9.5-1.87-4.43-3.34-8.63-4.5-12.5,2.74,3,5.64,6.49,8.5,10.5,2.1,2.94,3.92,5.8,5.5,8.5-1.67,1-3.33,2-5,3Z"/>
  <path class="cls-2" d="m34,220c.58-.21,3.2,7.45,7,15,18.06,35.93,53.86,52.18,58,54,27.5,12.05,51.9,10.05,63,9,11.73-1.11,34.08-3.49,57-19,15.03-10.18,27.6-24.6,33-35,.46-.89,3.11-6.06,7-13,4.85-8.64,7.27-12.96,9-15,8.01-9.44,19.18-12.44,25-14,4.39-1.18,10.91-2.4,19-2-.72,5.05-2.15,11.27-5,18-2.95,6.95-8.25,19.75-21,28-8.95,5.79-19,8-19,8-2.84.51-7.2,1.57-12,4-7.39,3.74-11.78,8.68-13,10-10.81,11.72-36.93,26.6-44,30-28.81,13.86-72.39,16.97-109-2-8.04-4.16-26.52-14.03-40-35-12.37-19.24-15.93-40.67-15-41Z"/>
  <path class="cls-3" d="m294,214c-7,5.67-14,11.33-21,17-13.74,13-16.44,16.48-16,17,.39.46,3.29-1.33,6-3,6.56-4.05,10.97-8.05,12-9,8.96-8.23,16.4-18.37,19-22Z"/>
  <path class="cls-9" d="m312,148c-2.6,1.01-6.12,2.59-10,5-10.35,6.44-16.03,14.35-20,20-.49.7-6.85,9.89-11,23-1.43,4.52-1.42,5.78-1,6,.22.12,1.28.31,9-11,9.53-13.98,8.9-15.79,15-23,2.82-3.33,3.48-3.57,11-12,2.97-3.33,5.38-6.12,7-8Z"/>
  <path class="cls-5" d="m230,157c.22,1.14.55,2.88,1,5,3.37,16.03,5.83,20.03,7,29,.99,7.59.38,13.54,0,17-.28,2.6-1.4,11.85-6,23-3.57,8.65-6.31,11.54-9,21-1.07,3.76-1.66,6.92-2,9,1.77-.65,4.38-1.83,7-4,2.6-2.16,3.81-4.13,6-7,3.42-4.46,5.57-6.31,8-9,6.59-7.31,11.62-16.25,16-24,3.87-6.85,8.05-14.32,12-25,1.48-4,4-11.4,6-21,1.26-6.04,2.83-13.79,3-24,.33-19.77-4.84-33.94-6-37-1.91-5.04-3.85-8.79-5-11-5.07-9.73-10.69-17.04-15-22,1.03,1.73,2.42,4.12,4,7,1.95,3.55,4.98,9.09,8,16,.85,1.95,3.24,7.4,5,13,3.71,11.77,3.9,21.8,4,28,.33,21.64-5.46,38.83-10,52-1.93,5.59-3.76,10.09-5,13v-14c.57-3.24,1.11-7.69,1-13-.16-7.53-1.57-13.23-3-19-.73-2.94-1.88-7.46-4-13-6.39-16.67-14.98-25.9-17-28-3.59-3.73-7.15-6.53-12-8-2.44-.74-4.57-.95-6-1,1.48,1.39,3.58,3.44,6,6,5.05,5.36,13.91,14.51,20,27,9.3,19.06,9.15,36.36,9,44-.12,6.26-.36,14.68-4,25-3.19,9.05-7.66,15.74-11,20,1.18-2.62,2.69-6.36,4-11,2.04-7.24,2.52-12.9,3-19,.59-7.45.97-12.34,0-19-.67-4.61-1.31-9-4-14-3.38-6.29-8.11-10.06-11-12Z"/>
  <path class="cls-8" d="m294,131c-1.93.16-5.15.74-8,3-4.84,3.84-5.49,10.05-6,15-.3,2.89-.42,7.46,1,13,.85-1.08,1.87-2.43,3-4,.95-1.32,2.38-3.4,4-6,1.42-2.29,3.02-4.87,4-7,1.16-2.52,2.67-7.08,2-14Z"/>
  <path class="cls-8" d="m271.5,154.5c.11-1.21.19-2.94,0-5-.15-1.58-.6-6.37-3-10-4.15-6.28-12.67-6.92-14-7-.19,1.47-.16,2.81,0,4,1.46,11.17,14.84,17.08,17,18Z"/>
  <path class="cls-8" d="m281.5,134.5c.45-.07.1-1.66,1-4,1.29-3.36,3.82-4.79,5-6,1.98-2.04,3.15-6.62-1-18-1.07,1.39-2.51,3.41-4,6-2.12,3.69-3.45,6-4,9-1.22,6.67,2.07,13.14,3,13Z"/>
  <path class="cls-8" d="m268.5,93.5c1.62-.2,2.5-3.26,3-5,.19-.66,1.07-3.91,0-8-1.3-4.93-4.6-7.89-6-9-.2.91-.52,2.31-1,4-1.05,3.68-1.68,4.64-2,6-1.25,5.33,3.4,12.33,6,12Z"/>
  <path class="cls-8" d="m271.5,132.5c1.64-1.48.18-5.49,0-6-2.39-6.59-11.1-10.67-22-11,.55,1.57,1.46,3.72,3,6,5.61,8.31,16.27,13.47,19,11Z"/>
  <path class="cls-8" d="m258.5,93.5c.8-1.65-2.53-4.81-4-6-6.38-5.18-14.94-3.47-17-3,.9,1.69,2.44,4.02,5,6,6,4.64,14.9,5.27,16,3Z"/>
  <path class="cls-8" d="m245.5,68.5c.94-.74.28-3.03,0-4-2.21-7.62-12.23-10.52-14-11,.24,1.55.76,3.71,2,6,3.32,6.17,10.25,10.38,12,9Z"/>
</svg>